<?xml version="1.0" encoding="UTF-8"?>
<svg width="116px" height="74px" viewBox="0 0 116 74" version="1.1" xmlns="http://www.w3.org/2000/svg" xmlns:xlink="http://www.w3.org/1999/xlink">
    <!-- Generator: Sketch 52.6 (67491) - http://www.bohemiancoding.com/sketch -->
    <title>Iconoactivatarjetas</title>
    <desc>Created with Sketch.</desc>
    <g id="Bancoproamerica-web-TDC-v2" stroke="none" stroke-width="1" fill="none" fill-rule="evenodd">
        <g id="002b.TDC-Home" transform="translate(-671.000000, -2838.000000)">
            <g id="Iconoactivatarjetas" transform="translate(671.000000, 2838.000000)">
                <g id="icono/herramientas/tarjeta_activa">
                    <g id="icono/herramientas/tarjeta" transform="translate(0.613895, 0.603175)">
                        <g id="Group-4" transform="translate(0.000000, 0.311316)">
                            <g id="Group-3">
                                <path d="M3.01722779,2.01058201 L14.5514728,2.01058201 C19.8123164,2.01058201 24.0770728,6.2753384 24.0770728,11.536182 L24.0770728,61.2014865 C24.0770728,66.4623301 19.8123164,70.7270865 14.5514728,70.7270865 L3.01722779,70.7270865 L3.01722779,2.01058201 Z" id="Rectangle" fill="#D8D8D8" transform="translate(13.547150, 36.368834) scale(-1, 1) translate(-13.547150, -36.368834) "></path>
                                <rect id="Rectangle" stroke="#AEAEAE" stroke-width="4.6" x="2.3" y="2.3" width="99.6462326" height="68.3452125" rx="12.7008"></rect>
                            </g>
                            <rect id="Rectangle" stroke="#AEAEAE" stroke-width="3.81024" fill="#FAFAFA" x="10.329058" y="27.2773678" width="21.461574" height="17.3332999" rx="4.2336"></rect>
                            <path d="M11.599138,34.6776068 C10.8976922,34.6776068 10.329058,35.246241 10.329058,35.9476868 L10.329058,40.1666107 C10.329058,42.0371329 11.8454158,43.5534907 13.715938,43.5534907 L22.096614,43.5534907 C22.7980598,43.5534907 23.366694,42.9848565 23.366694,42.2834107 L23.366694,35.9476868 C23.366694,35.246241 22.7980598,34.6776068 22.096614,34.6776068 L11.599138,34.6776068 Z" id="Rectangle" stroke="#AEAEAE" stroke-width="3.81024"></path>
                        </g>
                        <g id="Group-7" transform="translate(80.459408, 64.841270) scale(-1, 1) translate(-80.459408, -64.841270) translate(69.396239, 62.328042)" fill="#AEAEAE">
                            <rect id="Rectangle" x="0" y="1.95399252e-14" width="21.7820897" height="4.22870797" rx="2.11435399"></rect>
                        </g>
                    </g>
                    <g id="Group-6" transform="translate(12.682806, 8.645503)" fill="#AEAEAE">
                        <path d="M2.35853641,4.22870797 C1.0556809,4.22870797 -2.13162821e-14,3.28232313 -2.13162821e-14,2.11435399 C-2.13162821e-14,0.946384844 1.0556809,-8.8817842e-16 2.35853641,-8.8817842e-16 L24.8948235,-8.8817842e-16 C26.197679,-8.8817842e-16 27.2533599,0.946384844 27.2533599,2.11435399 C27.2533599,3.28232313 26.197679,4.22870797 24.8948235,4.22870797 L2.35853641,4.22870797 Z" id="Fill-22" transform="translate(13.626680, 2.114354) scale(1, -1) translate(-13.626680, -2.114354) "></path>
                        <path d="M37.1572325,4.22870797 L31.2872636,4.22870797 C30.2910209,4.22870797 29.483783,3.28232313 29.483783,2.11435399 C29.483783,0.946384844 30.2910209,0 31.2872636,0 L37.1572325,0 C38.1534753,0 38.9607132,0.946384844 38.9607132,2.11435399 C38.9607132,3.28232313 38.1534753,4.22870797 37.1572325,4.22870797" id="Fill-24" transform="translate(34.222248, 2.114354) scale(1, -1) translate(-34.222248, -2.114354) "></path>
                    </g>
                    <path d="M83.7188418,42.5830694 L74.2530568,33.0197361 C72.9279731,31.6897361 70.8032154,31.6897361 69.4791824,32.9922917 C68.1540986,34.2948472 68.1540986,36.456625 69.4518611,37.7876806 L81.2903972,49.7629583 C81.9524137,50.4279583 82.807781,50.7604583 83.6904697,50.7604583 C84.545837,50.7604583 85.4022551,50.4279583 86.0642716,49.7629583 L114.404882,21.4603472 C115.728915,20.1303472 115.728915,17.9960139 114.432204,16.6649583 C113.108171,15.3339028 110.983413,15.3339028 109.658329,16.6649583 L83.7188418,42.5830694 Z" id="Fill-1" fill="#FAFAFA"></path>
                    <path d="M83.7188418,39.5830694 L74.2530568,30.0197361 C72.9279731,28.6897361 70.8032154,28.6897361 69.4791824,29.9922917 C68.1540986,31.2948472 68.1540986,33.456625 69.4518611,34.7876806 L81.2903972,46.7629583 C81.9524137,47.4279583 82.807781,47.7604583 83.6904697,47.7604583 C84.545837,47.7604583 85.4022551,47.4279583 86.0642716,46.7629583 L114.404882,18.4603472 C115.728915,17.1303472 115.728915,14.9960139 114.432204,13.6649583 C113.108171,12.3339028 110.983413,12.3339028 109.658329,13.6649583 L83.7188418,39.5830694 Z" id="Fill-1" fill="#AEAEAE"></path>
                </g>
            </g>
        </g>
    </g>
</svg>