<?xml version="1.0" encoding="UTF-8"?>
<svg width="46px" height="53px" viewBox="0 0 46 53" version="1.1" xmlns="http://www.w3.org/2000/svg" xmlns:xlink="http://www.w3.org/1999/xlink">
    <!-- Generator: Sketch 52.6 (67491) - http://www.bohemiancoding.com/sketch -->
    <title>Iconopromociones2</title>
    <desc>Created with Sketch.</desc>
    <g id="Bancoproamerica-web-TDC-v2" stroke="none" stroke-width="1" fill="none" fill-rule="evenodd">
        <g id="005b.TDC-Home-Menu" transform="translate(-965.000000, -666.000000)">
            <g id="Iconopromociones2" transform="translate(965.000000, 666.000000)">
                <path d="M27.2350837,40.9547574 C27.4237655,41.1221683 27.6046785,41.2801456 27.7778227,41.4286893 L30.4996584,41.8031653 L33.6153846,44.8572154 L30.4996584,50.7068103 L29.7620272,51.8341424 L24.3331022,40.9547574 L26.9647914,41.3168308 L25.814586,40.9547574 L24.3331022,40.9547574 L20.1341561,40.9547574 L14.1379804,52 L10.7055126,44.6828498 L3.83065721,45.5588914 L8.70077764,35.7161167 L5.44404337,33.6881294 L5.44404337,27.8000889 L0.884615385,21.1912712 L5.44404337,15.090831 L4.54845547,9.90014321 L5.44404337,8.34503636 L12.0316708,6.06761211 L15.8801369,2.07605324 L16.5169399,0.881355932 L19.1227819,0.881355932 L14.7223461,11.2960142 C12.5147733,20.551132 14.7588087,28.5753909 21.4544523,35.3687911 C22.3736321,36.3013911 23.224066,37.1505134 24.0057537,37.916158 L29.3530324,40.9547574 L27.2350837,40.9547574 Z" id="Combined-Shape" fill="#D8D8D8"></path>
                <g id="Group-11">
                    <ellipse id="Oval" stroke="#AEAEAE" stroke-width="1.73" cx="22.3428571" cy="21.721519" rx="13.8" ry="13.8227848"></ellipse>
                    <path d="M3.08272332,26.1130061 C4.31391548,27.4646551 4.2627763,28.543328 4.17836173,30.3305549 C4.15279218,30.8664095 4.12407025,31.4736419 4.13492849,32.1306645 C4.18746874,35.3137597 6.53496504,35.843347 8.42115836,36.2684793 C10.0257363,36.6305903 11.5416963,36.9725067 12.4509921,38.548386 C14.007233,41.2934661 15.3298451,43.4849342 18.3932893,42.5093235 C19.4335853,42.1775045 20.1775547,41.863791 20.7754621,41.611706 C21.6738997,41.2328822 22.1688284,41.023972 22.9551801,41.023972 C23.7411816,41.023972 24.2364605,41.2328822 25.1348981,41.611706 C25.7331559,41.863791 26.4771252,42.1778526 27.5174212,42.5093235 C28.9720843,42.972756 30.1521374,42.7203229 31.1535537,41.8401145 C32.0719564,41.0326766 32.7886048,39.7134086 33.4593681,38.548386 C34.3690141,36.9725067 35.8846239,36.6305903 37.4892018,36.2684793 C39.3753952,35.843347 41.7228915,35.3137597 41.7747311,32.1306645 C41.7855895,31.4732937 41.7572178,30.8657132 41.7319985,30.3298585 C41.6475839,28.5429799 41.596795,27.4643069 42.8279871,26.1130061 C44.6966671,24.061856 45.9127977,22.7829773 45.910696,21.3679588 C45.9131479,19.8578863 44.4168029,18.3683565 42.8279871,16.6250009 C41.596795,15.2730036 41.6475839,14.1943306 41.7319985,12.4071038 C41.7572178,11.8712491 41.7859397,11.2636687 41.7747311,10.606646 C41.7228915,7.42389898 39.3757454,6.89431163 37.4895521,6.46883123 C35.8849742,6.1067202 34.3690141,5.76480379 33.4593681,4.18857635 C32.7854524,3.01902736 32.0628494,1.69662572 31.1528531,0.896499673 C30.1262175,-0.005644254 28.9370576,-0.223955441 27.5174212,0.228335176 C26.4764246,0.560154197 25.7314046,0.873867757 25.1331467,1.1263009 C24.2350595,1.50477649 23.740481,1.71333853 22.9558806,1.71368669 C22.1695289,1.71333853 21.6753007,1.50477649 20.7772135,1.1263009 C20.1789556,0.873867757 19.4342858,0.560154197 18.3932893,0.228683338 C16.9736529,-0.224303603 15.784493,-0.005644254 14.7578573,0.896499673 C13.8394546,1.70358939 13.1221057,3.02390189 12.4509921,4.18857635 C11.5420466,5.76375922 9.96689125,6.10637195 8.29926518,6.46883123 C6.34757162,6.89326715 3.91846289,7.42146176 3.86592264,10.606646 C3.85296275,11.4053793 3.91776231,12.1229859 3.9755566,12.7559838 C4.12371991,14.394188 4.21338853,15.3830297 3.08272332,16.6250009 C1.24276538,18.644118 -0.00488934888,19.9487623 1.44035582e-05,21.3658698 C-0.00523962139,22.8658451 1.44837273,24.3195119 3.08272332,26.1130061 Z M4.41199052,17.82136 C6.06980909,16.0007075 5.91989438,14.346835 5.76157323,12.5961675 C5.70553034,11.9784897 5.64738589,11.3395727 5.65894472,10.6355452 C5.68696616,8.93292708 6.60606947,8.66169197 8.68210812,8.21044593 C10.4730285,7.82082846 12.701784,7.33650495 14.0065324,5.07574827 C15.3249413,2.94590875 15.9168942,1.31118645 17.8458203,1.92607878 C18.8090574,2.23317683 19.4826229,2.51694646 20.0770277,2.7676387 C21.0423664,3.17431724 21.8045496,3.49603895 22.9555303,3.49638712 C24.1051101,3.49603895 24.8676435,3.17431724 25.8329822,2.7676387 C26.4273871,2.51694646 27.1009525,2.23317683 28.0648901,1.92607878 C29.989613,1.31292735 30.5654536,2.91422401 31.9038278,5.07574827 C33.2047233,7.32988944 35.3606229,7.81630201 37.0926983,8.2073123 C39.1270551,8.66621834 39.9533374,8.92108888 39.981709,10.6358935 C39.9915166,11.2368584 39.9655968,11.789426 39.9403775,12.3238879 C39.8531607,14.1751805 39.7704975,15.9241071 41.4983697,17.8217081 C42.821332,19.2732859 44.1187248,20.6416477 44.1169735,21.3658698 L44.1169735,21.3703962 C44.1190751,22.1527649 42.5694894,23.7411788 41.4983697,24.9162987 C39.7704975,26.8128552 39.8531607,28.5617818 39.9403775,30.4130744 C39.9655968,30.9475364 39.9915166,31.5004521 39.981709,32.1014171 C39.9533374,33.8165699 39.1267048,34.0710922 37.0923481,34.5299982 C35.3602727,34.9206603 33.2047233,35.4070729 31.9038278,37.6615622 L31.782635,37.8711688 C30.2659744,40.5048301 29.6431979,41.314009 28.0648901,40.8119281 C27.1023536,40.5048301 26.4291385,40.2210604 25.8350839,39.9707164 C24.8690446,39.5633414 24.1058106,39.2412716 22.9551801,39.2412716 C21.8041993,39.2412716 21.0409653,39.5629933 20.0749261,39.9707164 C19.4812217,40.2210604 18.8080066,40.5048301 17.8458203,40.8115799 C15.9249504,41.4233386 15.3522623,39.8352729 14.0068827,37.661214 C12.7056369,35.4070729 10.5500875,34.9206603 8.81801211,34.5299982 C6.78330514,34.0710922 5.95632225,33.8165699 5.92795056,32.1014171 C5.91814306,31.5008002 5.94441318,30.948581 5.96963248,30.4144672 C6.05754978,28.5624782 6.14021295,26.8132034 4.41199052,24.9162987 C3.2046166,23.5914598 1.79093482,22.1175984 1.79338672,21.3658698 C1.79058458,20.5852419 3.34332274,18.9943907 4.41199052,17.82136 Z" id="Shape" fill="#AEAEAE" fill-rule="nonzero"></path>
                    <path d="M8.48778393,34.8860759 L3.39563468,45.0610391 C3.33424465,45.1837066 3.38391986,45.3329148 3.50658738,45.3943048 C3.54937382,45.4157176 3.5974344,45.4243165 3.64499109,45.4190677 L10.3609418,44.6778296 C10.630256,44.6481054 10.8877478,44.7964413 10.9971358,45.0443283 L13.7923575,51.3786521 C13.8477365,51.504148 13.9943646,51.5609889 14.1198605,51.5056099 C14.1693157,51.4837862 14.210301,51.4464237 14.2365953,51.3991934 L19.7933444,41.4180916" id="Path-4" stroke="#AEAEAE" stroke-width="1.73"></path>
                    <path d="M28.6080068,35.5443038 L23.7687921,45.1009383 C23.7068241,45.2233148 23.7557948,45.3727556 23.8781713,45.4347237 C23.9212121,45.4565183 23.9696686,45.4653061 24.0176217,45.4600135 L30.7310129,44.7190578 C31.0003272,44.6893337 31.257819,44.8376696 31.367207,45.0855566 L34.1621107,51.41916 C34.2174898,51.5446559 34.3641179,51.6014968 34.4896138,51.5461178 C34.5391668,51.5242509 34.5802135,51.4867851 34.6065003,51.4394284 L40.7947955,40.2909828" id="Path-4" stroke="#AEAEAE" stroke-width="1.73" transform="translate(32.225969, 43.628650) scale(-1, 1) translate(-32.225969, -43.628650) "></path>
                </g>
                <g id="Group-25" transform="translate(20.346154, 11.457627)" fill="#AEAEAE">
                    <rect id="Rectangle" x="0.132692308" y="0.714979991" width="1.99038462" height="14.3316139" rx="0.995192308"></rect>
                    <ellipse id="Oval" cx="1.12788462" cy="17.9972202" rx="1" ry="1.26455416"></ellipse>
                </g>
            </g>
        </g>
    </g>
</svg>