<?xml version="1.0" encoding="UTF-8"?>
<svg width="112px" height="91px" viewBox="0 0 112 91" version="1.1" xmlns="http://www.w3.org/2000/svg" xmlns:xlink="http://www.w3.org/1999/xlink">
    <!-- Generator: Sketch 52.6 (67491) - http://www.bohemiancoding.com/sketch -->
    <title>iconotarjetaadicional</title>
    <desc>Created with Sketch.</desc>
    <g id="Bancoproamerica-web-TDC-v2" stroke="none" stroke-width="1" fill="none" fill-rule="evenodd">
        <g id="001b.TDC-Home" transform="translate(-794.000000, -2668.000000)">
            <g id="iconotarjetaadicional" transform="translate(794.000000, 2670.000000)">
                <g id="icono/herramientas/tarjeta_activa">
                    <g id="icono/herramientas/tarjeta" transform="translate(0.000000, 10.000000)">
                        <g id="Group-4" transform="translate(0.000000, 0.257354)">
                            <g id="Group-3">
                                <path d="M2.52571744,1.66208113 L15.7226244,1.66208113 C18.170495,1.66208113 20.1548861,3.64647228 20.1548861,6.09434281 L20.1548861,54.0354632 C20.1548861,56.4833337 18.170495,58.4677249 15.7226244,58.4677249 L2.52571744,58.4677249 L2.52571744,1.66208113 Z" id="Rectangle" fill="#D8D8D8" transform="translate(11.340302, 30.064903) scale(-1, 1) translate(-11.340302, -30.064903) "></path>
                                <rect id="Rectangle" stroke="#AEAEAE" stroke-width="3" x="1.5" y="1.5" width="84.264385" height="57.3013757" rx="11"></rect>
                            </g>
                            <rect id="Rectangle" stroke="#AEAEAE" stroke-width="1.77290467" fill="#FAFAFA" x="7.93811981" y="21.8608439" width="19.3820977" height="15.7057549" rx="1.96989408"></rect>
                            <path d="M8.52908803,27.9783747 C8.2027053,27.9783747 7.93811981,28.2429602 7.93811981,28.569343 L7.93811981,35.1167506 C7.93811981,35.9871045 8.64368111,36.6926658 9.51403507,36.6926658 L19.6775819,36.6926658 C20.0039646,36.6926658 20.2685501,36.4280803 20.2685501,36.1016976 L20.2685501,28.569343 C20.2685501,28.2429602 20.0039646,27.9783747 19.6775819,27.9783747 L8.52908803,27.9783747 Z" id="Rectangle" stroke="#AEAEAE" stroke-width="1.77290467"></path>
                        </g>
                        <g id="Group-7" transform="translate(67.113429, 53.524515) scale(-1, 1) translate(-67.113429, -53.524515) translate(57.613429, 51.524515)" fill="#AEAEAE">
                            <rect id="Rectangle" x="0" y="1.95399252e-14" width="18.2337588" height="3.49573192" rx="1.47742056"></rect>
                        </g>
                    </g>
                    <g id="icono/herramientas/tarjeta" transform="translate(10.000000, 0.000000)" stroke="#AEAEAE" stroke-width="3">
                        <g id="Group-4" transform="translate(0.000000, 0.260096)">
                            <g id="Group-3">
                                <path d="M0,10.6196724 C-7.19597271e-16,4.75458928 4.76340483,1.07739829e-15 10.6393625,0 L76.795683,0 C82.6716406,-1.07739829e-15 87.4350454,4.75458928 87.4350454,10.6196724 L87.4350454,50.3239882 C87.4350454,56.1890713 82.6716406,60.9436606 76.795683,60.9436606" id="Path"></path>
                            </g>
                        </g>
                    </g>
                    <g id="Group-6" transform="translate(11.000000, 17.000000)" fill="#AEAEAE">
                        <path d="M1.93520936,3.38296638 C0.866199711,3.38296638 -2.13162821e-14,2.6258585 -2.13162821e-14,1.69148319 C-2.13162821e-14,0.757107875 0.866199711,-8.8817842e-16 1.93520936,-8.8817842e-16 L20.4265219,-8.8817842e-16 C21.4955315,-8.8817842e-16 22.3617312,0.757107875 22.3617312,1.69148319 C22.3617312,2.6258585 21.4955315,3.38296638 20.4265219,3.38296638 L1.93520936,3.38296638 Z" id="Fill-22" transform="translate(11.180866, 1.691483) scale(1, -1) translate(-11.180866, -1.691483) "></path>
                        <path d="M30.4879857,3.38296638 L25.6716009,3.38296638 C24.854171,3.38296638 24.1918219,2.6258585 24.1918219,1.69148319 C24.1918219,0.757107875 24.854171,0 25.6716009,0 L30.4879857,0 C31.3054156,0 31.9677647,0.757107875 31.9677647,1.69148319 C31.9677647,2.6258585 31.3054156,3.38296638 30.4879857,3.38296638" id="Fill-24" transform="translate(28.079793, 1.691483) scale(1, -1) translate(-28.079793, -1.691483) "></path>
                    </g>
                    <g id="Group-6" transform="translate(23.000000, 4.000000)" fill="#AEAEAE">
                        <path d="M1.93520936,3.38296638 C0.866199711,3.38296638 0,2.6258585 0,1.69148319 C0,0.757107875 0.866199711,0 1.93520936,0 L20.4265219,0 C21.4955315,0 22.3617312,0.757107875 22.3617312,1.69148319 C22.3617312,2.6258585 21.4955315,3.38296638 20.4265219,3.38296638 L1.93520936,3.38296638 Z" id="Fill-22" transform="translate(11.180866, 1.691483) scale(1, -1) translate(-11.180866, -1.691483) "></path>
                        <path d="M30.4879857,3.38296638 L25.6716009,3.38296638 C24.854171,3.38296638 24.1918219,2.6258585 24.1918219,1.69148319 C24.1918219,0.757107875 24.854171,0 25.6716009,0 L30.4879857,0 C31.3054156,0 31.9677647,0.757107875 31.9677647,1.69148319 C31.9677647,2.6258585 31.3054156,3.38296638 30.4879857,3.38296638" id="Fill-24" transform="translate(28.079793, 1.691483) scale(1, -1) translate(-28.079793, -1.691483) "></path>
                    </g>
                </g>
                <g id="Group-20" transform="translate(75.000000, 52.000000)">
                    <circle id="Oval" stroke="#AFAFAF" stroke-width="4" fill="#FFFFFF" cx="18.5" cy="18.5" r="16.5"></circle>
                    <path d="M20.25,17.1666667 L28,17.1666667 C28.5522847,17.1666667 29,17.6143819 29,18.1666667 L29,19.0833333 C29,19.6356181 28.5522847,20.0833333 28,20.0833333 L20.25,20.0833333 L20.25,27 C20.25,27.5522847 19.8022847,28 19.25,28 L18.3333333,28 C17.7810486,28 17.3333333,27.5522847 17.3333333,27 L17.3333333,20.0833333 L10,20.0833333 C9.44771525,20.0833333 9,19.6356181 9,19.0833333 L9,18.1666667 C9,17.6143819 9.44771525,17.1666667 10,17.1666667 L17.3333333,17.1666667 L17.3333333,9 C17.3333333,8.44771525 17.7810486,8 18.3333333,8 L19.25,8 C19.8022847,8 20.25,8.44771525 20.25,9 L20.25,17.1666667 Z" id="Combined-Shape" fill="#AEAEAE"></path>
                </g>
            </g>
        </g>
    </g>
</svg>