<?xml version="1.0" encoding="UTF-8"?>
<svg width="87px" height="101px" viewBox="0 0 87 101" version="1.1" xmlns="http://www.w3.org/2000/svg" xmlns:xlink="http://www.w3.org/1999/xlink">
    <!-- Generator: Sketch 52.6 (67491) - http://www.bohemiancoding.com/sketch -->
    <title>Iconosegundacuenta</title>
    <desc>Created with Sketch.</desc>
    <g id="Bancoproamerica-web-TDC-v2" stroke="none" stroke-width="1" fill="none" fill-rule="evenodd">
        <g id="001b.TDC-Home" transform="translate(-357.000000, -2661.000000)">
            <g id="Iconosegundacuenta" transform="translate(359.000000, 2661.000000)">
                <g id="Iconoengrisnuevopersona" stroke="#AEAEAE">
                    <path d="M54.491561,11.7768949 C51.1088622,6.53742995 48.8866573,4.61581261 45.564119,3.3414423 C43.1808676,2.42733849 41.2991238,2.05267443 39.2138822,2.00540543 C38.1176859,1.98055647 37.2663955,2.02257521 34.9700721,2.18647571 C32.784549,2.34246782 29.6234928,3.85990667 25.6130865,6.79291777 L23.7393315,9.02414431 C22.6563563,10.3137275 21.959342,11.8827855 21.728443,13.550882 L21.538344,14.9242249 C21.1798727,17.513949 21,20.1252679 21,22.7396842 L21,28.8905387 C21,32.204152 21.9556259,35.4474604 23.7523257,38.2316843 L23.9488799,38.5362711 C25.6148903,41.1179746 27.9956327,43.1595568 30.8011913,44.4124033 C33.66312,45.6904224 36.8053464,46.2119115 39.9266808,45.9268849 L40.8780083,45.8400139 C44.2943613,45.5280475 47.5197045,44.1252209 50.0773239,41.8388757 L50.5649656,41.4029557 C52.8077447,39.3980571 54.3490577,36.7272414 54.962831,33.7822526 C55.6524493,30.4733469 56,27.1023002 56,23.7222957 L56,19.5191717 C56,16.8648548 55.4876149,14.2360527 54.491561,11.7768949 Z" id="Path-2" stroke-width="4"></path>
                    <path d="M29.4794728,50.5169839 L30.648478,51.1016416 C32.0734342,51.8143086 33.5963237,52.3114161 35.1673169,52.5766986 C36.7382593,52.8419725 38.3399506,52.8718005 39.9196806,52.665201 L41.2987273,52.4848471 C42.8579676,52.2809273 44.3690112,51.8035473 45.7623974,51.0746517 C47.1207326,50.3640917 48.6901578,50.1685535 50.1813201,50.5240884 L50.9621688,50.7102645 C52.9694841,51.1888647 54.8872597,51.9856608 56.6427287,53.0704197 L56.7010939,53.1064854 C58.4196865,54.1684572 59.9733285,55.4766139 61.3124744,56.9892383 C62.6491124,58.49903 63.7191864,60.225192 64.4769083,62.0938625 L64.6151739,62.4348488 C65.4626113,64.5247731 65.8983051,66.7587366 65.8983051,69.0139382 L65.8983051,76.9521518 C65.8983051,78.6937619 65.6710002,80.4279238 65.2221495,82.1107009 L65.184571,82.2515855 C64.7679383,83.8135747 63.9042034,85.2198861 62.699438,86.2978164 C61.4829209,87.3862611 60.0445271,88.1975178 58.4837061,88.6754965 L57.4227166,89.0004091 C55.1486076,89.696822 52.7835016,90.0508475 50.4051487,90.0508475 L26.3656399,90.0508475 C23.4654678,90.0508475 20.5846054,89.5791043 17.8359039,88.6540974 L16.9571214,88.3583651 C14.8608421,87.6529147 13.1268812,86.1500034 12.1308332,84.1751779 C11.1087229,82.1486796 10.5762712,79.9106606 10.5762712,77.6409899 L10.5762712,69.3545448 C10.5762712,67.1615688 10.9535797,64.9849413 11.6916854,62.9199125 L11.8663714,62.4311866 C12.4888816,60.689564 13.4064077,59.0680323 14.5787968,57.6375527 L14.718485,57.4671134 C15.801153,56.1461061 17.0635358,54.9832757 18.4688339,54.0125195 C19.874683,53.0413827 21.4046747,52.2635953 23.0177239,51.7000434 L24.9025286,51.0415482 C25.668124,50.7740717 26.441347,50.5289489 27.2212141,50.3064915 C27.973806,50.0918144 28.7795208,50.1669151 29.4794728,50.5169839 Z M24.3858778,16.3188175 L24.3858906,16.3188032 C23.0621846,15.1351956 22.7275037,13.1960577 23.5778839,11.637219 C24.4083944,10.1148034 25.5093249,8.75643576 26.8267482,7.62865348 L27.3270969,7.20032914 C28.8640223,5.88464175 30.6349977,4.87019279 32.5474189,4.21002768 C34.4621188,3.54907597 36.4778908,3.22900474 38.5031521,3.26435581 L38.7120352,3.26800188 C40.6981288,3.30266927 42.6619967,3.6924267 44.5108018,4.41884931 C46.355043,5.14347876 48.0316493,6.23753745 49.4376146,7.63380942 L50.4117316,8.60121049 C51.9123121,10.0914454 53.1146457,11.8544134 53.9541874,13.7954728 C54.7938175,15.7367365 55.257399,17.8197124 55.3203254,19.9338372 L55.3368354,20.4885204 C55.3390957,20.564457 55.3388975,20.6404469 55.3362412,20.7163707 C55.2682537,22.6596407 53.6378074,24.1798574 51.6945374,24.1118699 L47.0987415,23.9510808 C46.5818161,23.9329955 46.0651462,23.9082264 45.5488614,23.8767797 L45.5487335,23.8788787 C42.3267884,23.6826311 39.4239694,23.2311076 36.8402765,22.5243081 C32.5341215,21.346309 31.5253626,20.9545143 27.7114805,18.6994931 C26.4064052,17.9278456 25.297871,17.1342871 24.3858778,16.3188175 Z" id="Path-15" stroke-width="3.5" fill="#FFFFFF"></path>
                    <path d="M19.8619701,89.0934942 C19.8619701,77.7995263 19.8619701,72.1525424 19.8619701,72.1525424" id="Path-10" stroke-width="4" stroke-linecap="round"></path>
                    <path d="M57.2856989,89.0934942 C57.2856989,77.7995263 57.2856989,72.1525424 57.2856989,72.1525424" id="Path-10" stroke-width="2" stroke-linecap="round"></path>
                    <path d="M0.406779661,70.5879863 L0.406779661,74.5232266" id="Path-11" stroke-width="4" stroke-linecap="round"></path>
                    <path d="M0.813559322,82.7288136 L2.38511719,86.750235 C3.33721794,89.1865426 4.88078085,91.3475434 6.87659726,93.0383442 L6.95002705,93.1005519 C8.91331829,94.7637982 11.151152,96.0725932 13.5633204,96.9683303 L13.5633204,96.9683303 C15.981492,97.8662966 18.5155852,98.4140645 21.0887452,98.5950209 L26.8474576,99" id="Path-12" stroke-width="4" stroke-linecap="round"></path>
                    <path d="M21.9661017,16.0169492 L24.2585748,18.2760045 C26.0737217,20.0646917 28.2208445,21.481518 30.5792891,22.4468671 L30.8228322,22.5465532 C33.0379709,23.4532449 35.3231945,24.1782427 37.6558951,24.7143742 L37.6558951,24.7143742 C39.9872428,25.2501947 42.3640159,25.5644653 44.7545071,25.6529937 L46.3152544,25.7107936 C47.8935821,25.7692447 49.4736023,25.7653523 51.0516228,25.6991255 L55.3220339,25.5199039" id="Path-13" stroke-linecap="round"></path>
                </g>
                <g id="Group-20" transform="translate(48.000000, 62.000000)">
                    <circle id="Oval" stroke="#AFAFAF" stroke-width="4" fill="#FFFFFF" cx="18.5" cy="18.5" r="16.5"></circle>
                    <path d="M20.25,17.1666667 L28,17.1666667 C28.5522847,17.1666667 29,17.6143819 29,18.1666667 L29,19.0833333 C29,19.6356181 28.5522847,20.0833333 28,20.0833333 L20.25,20.0833333 L20.25,27 C20.25,27.5522847 19.8022847,28 19.25,28 L18.3333333,28 C17.7810486,28 17.3333333,27.5522847 17.3333333,27 L17.3333333,20.0833333 L10,20.0833333 C9.44771525,20.0833333 9,19.6356181 9,19.0833333 L9,18.1666667 C9,17.6143819 9.44771525,17.1666667 10,17.1666667 L17.3333333,17.1666667 L17.3333333,9 C17.3333333,8.44771525 17.7810486,8 18.3333333,8 L19.25,8 C19.8022847,8 20.25,8.44771525 20.25,9 L20.25,17.1666667 Z" id="Combined-Shape" fill="#AEAEAE"></path>
                </g>
            </g>
        </g>
    </g>
</svg>