<?xml version="1.0" encoding="UTF-8"?>
<svg width="66px" height="64px" viewBox="0 0 66 64" version="1.1" xmlns="http://www.w3.org/2000/svg" xmlns:xlink="http://www.w3.org/1999/xlink">
    <!-- Generator: Sketch 52.6 (67491) - http://www.bohemiancoding.com/sketch -->
    <title>puntopromerica</title>
    <desc>Created with Sketch.</desc>
    <defs>
        <polygon id="path-1" points="0 0.245481769 34.3838662 0.245481769 34.3838662 31.5151515 0 31.5151515"></polygon>
    </defs>
    <g id="Bancoproamerica-web-TDC-v2" stroke="none" stroke-width="1" fill="none" fill-rule="evenodd">
        <g id="002b.Detalle-Promerica-Op1" transform="translate(-1098.000000, -286.000000)">
            <g id="puntopromerica" transform="translate(1098.000000, 286.000000)">
                <g id="Group">
                    <g id="icono/alertas/pregunta">
                        <g id="question">
                            <path d="M41.5301742,52.5479273 C33.6326234,52.5479273 26.6223874,49.3392 20.9209283,44.2507152 C15.1975233,39.1438061 12.7216206,31.5438061 12.3834534,24.2158061 C12.1395541,18.9042909 14.2343951,13.0259879 17.4404995,8.3462303 C10.6741629,13.4172606 6.3094119,21.3692606 6.3094119,30.3156848 C6.3094119,45.6286545 19.0789645,58.0432 34.8316705,58.0432 C43.3826122,58.0432 51.0502293,54.3782303 56.2783541,48.5838061 C51.7933991,51.1035636 46.5777436,52.5479273 41.5301742,52.5479273" id="Fill-1" fill="#69BE28"></path>
                            <path d="M37.8921336,63.7115152 C37.2746542,63.7115152 36.7384747,63.2659394 36.6571749,62.6545455 C36.5688923,61.9907879 37.0507057,61.3827879 37.7340229,61.2969697 C38.7495221,61.1694545 39.7650212,60.9929697 40.7515916,60.7718788 C41.4224395,60.6225455 42.0912923,61.0293333 42.2464103,61.6814545 C42.4005308,62.3340606 41.9815626,62.9842424 41.3107147,63.1345455 C40.2453383,63.3726061 39.149537,63.5636364 38.0532368,63.7013333 C37.9993695,63.7081212 37.9455021,63.7115152 37.8921336,63.7115152" id="Fill-3" fill="#00693C"></path>
                            <g id="Group-7" transform="translate(0.000000, 32.449455)">
                                <mask id="mask-2" fill="white">
                                    <use xlink:href="#path-1"></use>
                                </mask>
                                <g id="Clip-6"></g>
                                <path d="M33.1372434,31.5151515 C33.129263,31.5151515 33.1222802,31.5151515 33.1142999,31.5146667 C15.777495,31.2150303 1.54354872,18.3398788 0.00483808531,1.56557576 C-0.0560120599,0.898909091 0.450241197,0.309818182 1.13655103,0.250666667 C1.81537929,0.189090909 2.42787091,0.683151515 2.48921983,1.35030303 C3.91421053,16.8877576 17.0997387,28.8135758 33.1591893,29.0913939 C33.8474942,29.1030303 34.3956443,29.6552727 34.3836738,30.3243636 C34.3717033,30.9866667 33.8155728,31.5151515 33.1372434,31.5151515" id="Fill-5" fill="#00693C" mask="url(#mask-2)"></path>
                            </g>
                            <g id="Group-10" transform="translate(5.486488, 0.449455)" fill="#00693C">
                                <path d="M57.5020405,29.2211394 C57.5020405,43.8141091 45.3210385,55.6550788 30.3888119,55.6550788 C15.457084,55.6550788 3.27558327,43.7360485 3.27558327,29.2211394 C3.27558327,14.7062303 15.457084,2.86477576 30.3888119,2.86477576 C45.3210385,2.86477576 57.5020405,14.6281697 57.5020405,29.2211394 M60.412872,29.2211394 C60.412872,13.1779879 46.9724715,0.0352 30.3888119,0.0352 C13.8051522,0.0352 0.365250502,13.1712 0.365250502,29.2919273 C0.365250502,45.4126545 13.8051522,58.4773818 30.3888119,58.4773818 C46.9724715,58.4773818 60.412872,45.3418667 60.412872,29.2211394" id="Fill-8"></path>
                            </g>
                        </g>
                    </g>
                    <path d="M33.0021352,25.4135232 L27.3779676,26.0038599 C27.001578,26.0433673 26.728481,26.3805185 26.7679885,26.7569081 C26.7842967,26.9122771 26.8532031,27.0574099 26.9632887,27.168255 L30.9460605,31.178509 C31.4525663,31.6885098 31.6559209,32.4260174 31.4823663,33.1235328 L29.6889037,40.3314507 L27.9203867,41.3619447 L28.3891401,32 L22.037927,24.7200547 C26.4129645,24.4521861 29.4042048,23.7790366 31.0116481,22.7006061 C32.6190914,21.6221756 34.3888327,19.101192 36.3208721,15.1376552 L37.5177379,16.626973 L34.1195646,24.5885068 C33.9243496,25.0458735 33.4967041,25.3616112 33.0021352,25.4135232 Z" id="Path-3" fill="#69BE28"></path>
                    <path d="M36.169387,38.2357922 L27.5871748,42.6916602 C27.2512909,42.8660505 26.8376319,42.735134 26.6632417,42.3992501 C26.5932734,42.2644879 26.5700464,42.1103032 26.5972083,41.9609089 L28.2846721,32.6796215 C28.3262492,32.4509419 28.2490751,32.2167758 28.0796812,32.0576259 L21.129613,25.5278591 C20.8537932,25.2687194 20.8402713,24.835049 21.0994111,24.5592291 C21.2070061,24.4447085 21.3506911,24.3706451 21.5063907,24.3494486 L31.0993707,23.0434893 C31.3238713,23.0129265 31.5187528,22.8733706 31.6199866,22.670673 L35.8720963,14.1567905 C36.0411939,13.8182111 36.4527473,13.680819 36.7913267,13.8499165 C36.9241634,13.9162595 37.0318577,14.0239538 37.0982007,14.1567905 L41.3503104,22.670673 C41.4515442,22.8733706 41.6464257,23.0129265 41.8709264,23.0434893 L51.4639063,24.3494486 C51.8389046,24.4004998 52.1015157,24.7458811 52.0504646,25.1208795 C52.0292681,25.2765791 51.9552047,25.4202641 51.8406841,25.5278591 L44.8906158,32.0576259 C44.7212219,32.2167758 44.6440479,32.4509419 44.6856249,32.6796215 L46.3730887,41.9609089 C46.4407875,42.3332621 46.1938164,42.6899947 45.8214633,42.7576935 C45.6720691,42.7848554 45.5178844,42.7616285 45.3831222,42.6916602 L36.8009101,38.2357922 C36.6029482,38.1330108 36.3673488,38.1330108 36.169387,38.2357922 Z" id="Star" stroke="#00693C" stroke-width="2.74103077"></path>
                </g>
            </g>
        </g>
    </g>
</svg>