<?xml version="1.0" encoding="UTF-8"?>
<svg width="78px" height="54px" viewBox="0 0 78 54" version="1.1" xmlns="http://www.w3.org/2000/svg" xmlns:xlink="http://www.w3.org/1999/xlink">
    <!-- Generator: Sketch 52.6 (67491) - http://www.bohemiancoding.com/sketch -->
    <title>icono/herramientas/tarjeta</title>
    <desc>Created with Sketch.</desc>
    <g id="Bancoproamerica-web-TDC-v2" stroke="none" stroke-width="1" fill="none" fill-rule="evenodd">
        <g id="002b.Detalle-Promerica-Op1" transform="translate(-835.000000, -293.000000)">
            <g id="icono/herramientas/tarjeta" transform="translate(835.000000, 293.000000)">
                <g id="Group-4">
                    <g id="Group-3">
                        <rect id="Rectangle" x="0" y="0" width="77.738255" height="53.675475" rx="12.6"></rect>
                        <path d="M2.25,1.47945205 L8.50469799,1.47945205 C13.7237889,1.47945205 17.954698,5.71036117 17.954698,10.9294521 L17.954698,42.5933053 C17.954698,47.8123962 13.7237889,52.0433053 8.50469799,52.0433053 L2.25,52.0433053 L2.25,1.47945205 Z" id="Rectangle" fill="#69BE28" transform="translate(10.102349, 26.761379) scale(-1, 1) translate(-10.102349, -26.761379) "></path>
                        <path d="M12.6,1.415 C6.42269507,1.415 1.415,6.42269507 1.415,12.6 L1.415,41.075475 C1.415,47.25278 6.42269507,52.260475 12.6,52.260475 L65.138255,52.260475 C71.31556,52.260475 76.323255,47.25278 76.323255,41.075475 L76.323255,12.6 C76.323255,6.42269507 71.31556,1.415 65.138255,1.415 L12.6,1.415 Z" id="Rectangle" stroke="#00693C" stroke-width="2.83"></path>
                    </g>
                    <path d="M10.4818792,20.5597304 C9.20610142,20.5597304 8.17187919,21.5939527 8.17187919,22.8697304 L8.17187919,30.0278392 C8.17187919,31.3036169 9.20610142,32.3378392 10.4818792,32.3378392 L20.9275168,32.3378392 C22.2032946,32.3378392 23.2375168,31.3036169 23.2375168,30.0278392 L23.2375168,22.8697304 C23.2375168,21.5939527 22.2032946,20.5597304 20.9275168,20.5597304 L10.4818792,20.5597304 Z" id="Rectangle" stroke="#00693C" stroke-width="3.78" fill="#FFFFFF"></path>
                    <path d="M9.43187919,26.0050685 C8.73600041,26.0050685 8.17187919,26.5691897 8.17187919,27.2650685 L8.17187919,28.7825011 C8.17187919,30.3164348 9.41537813,31.5599337 10.9493118,31.5599337 L15.6956376,31.5599337 C16.3915164,31.5599337 16.9556376,30.9958125 16.9556376,30.2999337 L16.9556376,27.2185666 C16.9556376,26.5483701 16.412336,26.0050685 15.7421395,26.0050685 L9.43187919,26.0050685 Z" id="Rectangle" stroke="#00693C" stroke-width="3.78" fill="#FFFFFF"></path>
                </g>
                <g id="Group-7" transform="translate(59.000000, 47.500000) scale(-1, 1) translate(-59.000000, -47.500000) translate(52.000000, 46.000000)" fill="#00693C">
                    <rect id="Rectangle" x="4.54747351e-13" y="0" width="13.7510677" height="2.36516129" rx="1.18258065"></rect>
                </g>
            </g>
        </g>
    </g>
</svg>