<?xml version="1.0" encoding="UTF-8"?>
<svg width="102px" height="102px" viewBox="0 0 102 102" version="1.1" xmlns="http://www.w3.org/2000/svg" xmlns:xlink="http://www.w3.org/1999/xlink">
    <!-- Generator: Sketch 52.6 (67491) - http://www.bohemiancoding.com/sketch -->
    <title>icono/contacto/telefono</title>
    <desc>Created with Sketch.</desc>
    <defs>
        <path d="M81.1713625,73.2567347 C81.1501997,73.2567347 81.1501997,73.2779527 81.1713625,73.2567347 C80.3460126,74.1478895 79.4994998,74.9541724 78.5894986,75.8453272 C77.2139153,77.1608413 75.8171692,78.5400094 74.5050744,80.0889213 C72.3676296,82.3804621 69.8492541,83.4625786 66.5478543,83.4625786 C66.230412,83.4625786 65.8918069,83.4625786 65.5743646,83.4413607 C59.2890073,83.0382192 53.4480691,80.5769346 49.0673655,78.4763555 C37.0892097,72.6626315 26.5712885,64.4088409 17.8310441,53.9483814 C10.6145226,45.2277954 5.78939982,37.1649665 2.59381409,28.5080345 C0.625671889,23.2247598 -0.0938639707,19.1084735 0.22357832,15.2255848 C0.435206514,12.7430822 1.38753339,10.6849391 3.1440474,8.92384752 L10.3605688,1.6885195 C11.397547,0.712492851 12.4980136,0.182043583 13.5773174,0.182043583 C14.910575,0.182043583 15.9898788,0.98832647 16.667089,1.66730153 C16.6882518,1.6885195 16.7094146,1.70973747 16.7305775,1.73095544 C18.0215094,2.94037978 19.248953,4.19224005 20.5398849,5.5289722 C21.1959323,6.20794727 21.8731426,6.88692233 22.5503528,7.58711536 L28.3278025,13.3796214 C30.5710613,15.6287263 30.5710613,17.7080874 28.3278025,19.9571923 C27.7140807,20.5725134 27.1215218,21.1878346 26.5078,21.7819378 C24.7301232,23.6066833 23.0370976,25.3041209 21.1959323,26.9591226 C21.1536067,27.0015586 21.1112811,27.0227765 21.0901182,27.0652125 C19.2701158,28.889958 19.6087209,30.6722675 19.9896516,31.8816918 C20.0108145,31.9453457 20.0319773,32.0089997 20.0531401,32.0726536 C21.5557003,35.7221445 23.6719822,39.1594558 26.8887308,43.2545241 L26.9098936,43.2757421 C32.7508317,50.4898522 38.9092122,56.1126144 45.7024772,60.4198624 C46.5701528,60.9715297 47.4589912,61.4171071 48.305504,61.8414665 C49.0673655,62.22339 49.7869014,62.5840955 50.4006231,62.9660189 C50.4852744,63.0084549 50.5699257,63.0721088 50.6545769,63.1145447 C51.3741128,63.4752502 52.051323,63.644994 52.7496961,63.644994 C54.5062101,63.644994 55.6066767,62.5416595 55.9664446,62.180954 L63.2041288,54.924408 C63.9236647,54.202997 65.066457,53.3330602 66.3997146,53.3330602 C67.7118094,53.3330602 68.7911132,54.1605611 69.4471606,54.8819721 C69.4683234,54.9031901 69.4683234,54.9031901 69.4894862,54.924408 L81.1501997,66.6155099 C83.3299701,68.7797429 83.3299701,71.0076298 81.1713625,73.2567347 Z" id="path-1"></path>
    </defs>
    <g id="Bancoproamerica-web-TDC-v2" stroke="none" stroke-width="1" fill="none" fill-rule="evenodd">
        <g id="007b.TDC-Home-Menu" transform="translate(-1010.000000, -3195.000000)">
            <g id="icono/contacto/telefono" transform="translate(1012.000000, 3196.000000)">
                <g id="phone-call">
                    <g>
                        <path d="M79.172538,60.7439988 C77.1197445,58.6009838 74.6436946,57.4552133 72.019505,57.4552133 C69.4164782,57.4552133 66.9192655,58.5797658 64.7818208,60.7227808 L58.0943698,67.4064416 C57.5441365,67.10939 56.9939032,66.8335564 56.4648327,66.5577228 C55.7029713,66.1757993 54.9834354,65.8150938 54.3697136,65.4331703 C48.1055191,61.4441918 42.4127207,56.245789 36.9527133,49.5196923 C34.3073608,46.1672529 32.529684,43.3452628 31.238752,40.4808368 C32.9741032,38.889489 34.5824775,37.2344872 36.1485261,35.6431394 C36.7410851,35.0490363 37.333644,34.4337151 37.926203,33.8396119 C42.370395,29.3838381 42.370395,23.61255 37.926203,19.1567762 L32.1487533,13.3642702 C31.4927059,12.7065131 30.8154956,12.027538 30.1806111,11.348563 C28.9108419,10.0330488 27.5775843,8.67509866 26.202001,7.40202042 C24.1492075,5.36509523 21.6943205,4.28297872 19.1124565,4.28297872 C16.5305925,4.28297872 14.0333799,5.36509523 11.9170979,7.40202042 C11.8959351,7.42323839 11.8959351,7.42323839 11.8747723,7.44445636 L4.67941368,14.7222203 C1.9705728,17.4381206 0.425686982,20.748124 0.0870818714,24.5885767 C-0.420825794,30.7842241 1.39917667,36.5555122 2.79592275,40.332311 C6.2242995,49.6045642 11.3457018,58.1978423 18.9854796,67.4064416 C28.2547945,78.5034403 39.4076003,87.2664622 52.1476176,93.4408917 C57.0150661,95.7536505 63.5120516,98.4907687 70.7708987,98.9575641 C71.2153179,98.978782 71.6808999,99 72.1041563,99 C76.9927676,99 81.0983545,97.2389084 84.3151031,93.7379433 C84.3362659,93.6955073 84.3785915,93.6742894 84.3997544,93.6318534 C85.500221,92.2951213 86.7699901,91.0856969 88.1032477,89.7914007 C89.013249,88.9214639 89.944413,88.0090912 90.8544143,87.0542825 C92.9495334,84.8688315 94.05,82.322675 94.05,79.7128646 C94.05,77.0818363 92.9283706,74.5568977 90.7909258,72.4351007 L79.172538,60.7439988 Z" id="Shape" stroke="#FAFAFA" stroke-width="2.8" fill="#AEAEAE" fill-rule="nonzero"></path>
                        <path d="M54.2862723,22.355948 C59.7357044,23.2776886 64.6859518,25.8753213 68.63783,29.855565 C72.5897082,33.8358086 75.1480294,38.8215875 76.0840005,44.3101341 C76.3127935,45.692745 77.498357,46.656383 78.8503153,46.656383 C79.0167102,46.656383 79.1623057,46.6354343 79.3287005,46.6144857 C80.8678531,46.3631019 81.8870217,44.8966963 81.6374294,43.3464961 C80.514264,36.7057738 77.3943602,30.6516137 72.6313069,25.8543727 C67.8682537,21.0571316 61.857239,17.914834 55.2638422,16.7836068 C53.7246896,16.532223 52.2895338,17.5587069 52.0191422,19.0879584 C51.7487505,20.6172099 52.7471197,22.1045641 54.2862723,22.355948 Z" id="Path" stroke="#FFFFFF" stroke-width="0.7" fill="#AEAEAE"></path>
                        <path d="M98.9557911,45.2289411 C97.044077,33.9328404 91.7600133,23.6538216 83.6405984,15.4738866 C75.5211835,7.29395167 65.318215,1.97050193 54.1056897,0.0445384064 C52.5376545,-0.236782108 51.0555391,0.845219871 50.7762999,2.42494276 C50.5185407,4.02630569 51.5710575,5.51946842 53.1605726,5.80078894 C63.1702217,7.51035206 72.2991935,12.2928008 79.559411,19.5854942 C86.8196286,26.8998275 91.545214,36.0968444 93.2421288,46.1811028 C93.478408,47.6093454 94.7027643,48.6047872 96.0989599,48.6047872 C96.2707994,48.6047872 96.4211589,48.5831472 96.5929984,48.5615072 C98.1610336,48.3234667 99.2350303,46.8086639 98.9557911,45.2289411 Z" id="Path" stroke="#FFFFFF" stroke-width="0.7" fill="#AEAEAE"></path>
                        <g id="Rectangle" transform="translate(5.577465, 9.829787)">
                            <g>
                                <mask id="mask-2" fill="white">
                                    <use xlink:href="#path-1"></use>
                                </mask>
                                <use id="Mask" fill="#FAFAFA" fill-rule="nonzero" xlink:href="#path-1"></use>
                                <path d="M-5.89119718,15.0760982 L18.6409841,-4.61648936 C15.6644803,-0.0619675713 14.1762283,9.09490889 14.1762283,22.85414 C14.1762283,36.6133711 17.8053964,50.7788351 25.0637324,65.3505319 L5.98729085,43.4929867 L-5.89119718,15.0760982 Z" fill="#D8D8D8" mask="url(#mask-2)"></path>
                            </g>
                        </g>
                    </g>
                </g>
            </g>
        </g>
    </g>
</svg>