<svg xmlns="http://www.w3.org/2000/svg" width="116" height="107" fill-rule="evenodd"><path d="M100.636 25.363l1.24 6.543c.062.33-.08.642-.38.84a1.01 1.01 0 0 1-1 .064L94 29.723a2.34 2.34 0 0 0-1-.223c-.343 0-.69.075-1.003.223l-6.495 3.09a1.01 1.01 0 0 1-1-.064c-.3-.2-.44-.512-.38-.84l1.242-6.543c.12-.63-.112-1.277-.62-1.725L79.5 19.006c-.264-.234-.355-.565-.24-.88s.402-.54.766-.586l7.265-.955c.7-.1 1.306-.488 1.62-1.064l3.247-5.954c.165-.3.484-.48.854-.48s.686.178.85.48l3.25 5.954c.3.576.917.974 1.62 1.064l7.263.955c.366.047.654.267.765.586a.79.79 0 0 1-.238.881l-5.256 4.632c-.508.448-.74 1.09-.62 1.725zm6.714-5.58c.6-.52.798-1.284.543-1.995s-.92-1.217-1.737-1.324l-7.266-.955a.95.95 0 0 1-.713-.47L94.93 9.085C94.565 8.417 93.825 8 93 8s-1.564.417-1.93 1.085l-3.247 5.954c-.138.252-.408.43-.716.47l-7.266.955c-.816.106-1.482.613-1.737 1.324s-.044 1.475.545 1.995l5.257 4.633c.223.2.325.483.273.762l-1.24 6.546c-.137.735.188 1.462.857 1.902s1.534.496 2.264.148l6.498-3.09c.275-.13.606-.13.885 0l6.494 3.09a2.35 2.35 0 0 0 1.003.226c.446 0 .886-.127 1.264-.374.666-.44.995-1.167.856-1.902l-1.243-6.546c-.053-.28.05-.563.276-.76l5.256-4.636z" fill="#dfdfdf" stroke="#dfdfdf" stroke-width="2"/><path d="M67.6 36.063c-9.502 5.196-19.063 8.66-19.063 17.665s-6.1 27.013-22.003 31.17l-6.63 6.427 5.808 6.326 6.902-6.7c15.893-4.156 22.003-22.165 22.003-31.17s9.56-12.47 19.064-17.664c7.93-4.336 5.238-15.417-1.4-15.947.715 3.5-.526 7.613-4.68 9.884zM62.347 28.3l2.548-.666 4.476-1.307V3.08h-7.386c-2.93 0-5.306 2.635-5.306 5.885V30.02a12.62 12.62 0 0 1 4.418-1.43c-2.317.294.78-.2 1.25-.3z" fill="#ebecee"/><g fill="#dfdfdf"><path d="M24.216 99.097c-.72-.915-.636-2.304.19-3.103l6.903-6.7c.243-.236.534-.402.85-.485 15.32-4.005 20.475-21.612 20.475-29.03 0-9.11 7.84-13.19 16.14-17.504l4.03-2.133c3.92-2.144 4.4-6.065 3.185-8.8-1-2.253-3.483-4.17-7.186-2.145-1.77.966-4.044 1.403-6.677 1.9-4.844.93-10.87 2.09-16.335 7.08-3.912 3.577-8.002 3.943-10.67.96-.77-.863-.765-2.255.013-3.1s2.03-.85 2.803.013c1.605 1.798 4.264-.28 5.333-1.256 6.275-5.73 13.154-7.053 18.177-8.02 2.332-.45 4.345-.836 5.604-1.523 5.89-3.216 10.605-.104 12.493 4.15 2.072 4.666 1.027 11.4-4.99 14.69l-4.1 2.17c-8.59 4.468-13.857 7.51-13.857 13.522 0 10.84-7.327 28.745-23.044 33.178l-6.54 6.337c-.376.365-.84.544-1.303.544-.552 0-1.102-.255-1.494-.752z"/><path d="M30.557 105.938L1.596 74.523A2.32 2.32 0 0 1 1 72.952a2.33 2.33 0 0 1 .595-1.572c4.33-4.708 7.947-12.52 11.775-20.8 4.92-10.63 10.006-21.62 17.704-29.15 5.985-5.85 13.096-6.443 22.1-7.193l3.345-.287c1.1-.106 2.048.8 2.137 2.012s-.722 2.272-1.813 2.37l-3.37.3c-8.905.742-14.8 1.232-19.775 6.107-7.135 6.978-12.048 17.594-16.8 27.86-3.585 7.745-7 15.104-11.134 20.294l27.566 29.9a2.36 2.36 0 0 1 .03 3.1c-.388.44-.902.66-1.417.66a1.88 1.88 0 0 1-1.386-.626zM51.9 66.093c-.074-1.212.752-2.26 1.844-2.34 8.976-.67 12.404-4.477 12.62-7.816.173-2.67-1.562-5.205-3.95-5.77-1.07-.253-1.753-1.42-1.525-2.6s1.282-1.946 2.352-1.692c4.35 1.03 7.393 5.493 7.076 10.385-.162 2.516-1.817 10.807-16.308 11.9a1.76 1.76 0 0 1-.136.005c-1.034 0-1.904-.9-1.975-2.05z"/><path d="M49.822 77.75c-1.047-.356-1.636-1.586-1.315-2.747s1.43-1.815 2.476-1.457c4.852 1.65 9.024.9 11.452-2.057 1.94-2.362 2.463-5.864 1.33-8.92-.416-1.123.067-2.408 1.08-2.87s2.17.074 2.588 1.197c1.713 4.62.9 9.942-2.067 13.556-2.36 2.872-5.7 4.355-9.577 4.356-1.88 0-3.884-.348-5.965-1.056zM92.97 48.072c-1.094 0-1.982-.984-1.982-2.2s.888-2.2 1.982-2.2h14.324c2.25 0 4.08-2.03 4.08-4.525V9.8c0-2.494-1.83-4.524-4.08-4.524H62.742c-2.25 0-4.08 2.03-4.08 4.524v20.268c0 1.215-.887 2.2-1.982 2.2s-1.982-.984-1.982-2.2V9.8c0-4.918 3.608-8.92 8.044-8.92h44.552c4.436 0 8.044 4.003 8.044 8.92v29.35c0 4.92-3.608 8.923-8.044 8.923H92.97zm-12.427.275c-1.095 0-1.982-.984-1.982-2.2s.887-2.2 1.982-2.2h6.213c1.095 0 1.982.984 1.982 2.2s-.887 2.2-1.982 2.2h-6.213zM11.48 40.842c-.97-.564-1.345-1.893-.836-2.968 4.205-8.905 9-18.02 15.477-24.363 2.87-2.808 6.2-4.605 10.45-5.656 1.07-.263 2.13.484 2.366 1.67s-.436 2.36-1.505 2.624c-3.63.895-6.3 2.333-8.7 4.662-6.003 5.87-10.558 14.575-14.585 23.106-.354.75-1.044 1.18-1.758 1.18-.3 0-.625-.08-.918-.252zm31.1-31.8c-.094-1.2.714-2.275 1.805-2.38l3.642-.318.64-.053c1.1-.088 2.044.815 2.126 2.026s-.736 2.267-1.827 2.358l-.64.054-3.598.315-.173.008c-1.017 0-1.884-.864-1.973-2zM75.25 56.45c-1.094 0-1.982-.984-1.982-2.2s.888-2.2 1.982-2.2H94.2c1.095 0 1.982.984 1.982 2.2s-.887 2.2-1.982 2.2H75.25zm26.047-.158c-1.095 0-1.982-.984-1.982-2.2s.887-2.2 1.982-2.2h6.452c1.095 0 1.982.984 1.982 2.2s-.887 2.2-1.982 2.2h-6.452z"/></g></svg>