<svg xmlns="http://www.w3.org/2000/svg" width="116" height="107" fill-rule="evenodd"><path d="M67.746 36.063c-9.523 5.196-19.105 8.66-19.105 17.665S42.517 80.74 26.6 84.897l-6.646 6.427 5.82 6.326 6.917-6.7c15.928-4.156 22.05-22.165 22.05-31.17s9.58-12.47 19.106-17.664c7.947-4.336 5.25-15.417-1.402-15.947.717 3.5-.527 7.613-4.7 9.884zM62.482 28.3l2.554-.666 4.486-1.307V3.08H62.12c-2.937 0-5.318 2.635-5.318 5.885V30.02a12.69 12.69 0 0 1 4.428-1.43c-2.322.294.78-.2 1.252-.3z" fill="#69be28"/><g fill="#00693c"><path d="M24.267 99.097a2.37 2.37 0 0 1 .189-3.103l6.918-6.7a1.92 1.92 0 0 1 .851-.485c15.353-4.005 20.52-21.612 20.52-29.03 0-9.11 7.856-13.19 16.174-17.504l4.04-2.133c3.93-2.144 4.41-6.065 3.192-8.8-1.003-2.253-3.49-4.17-7.202-2.145-1.775.966-4.053 1.403-6.69 1.9-4.854.93-10.893 2.09-16.37 7.08-3.92 3.577-8.02 3.943-10.692.96a2.37 2.37 0 0 1 .013-3.11 1.85 1.85 0 0 1 2.809.013c1.608 1.798 4.273-.28 5.345-1.256 6.29-5.73 13.183-7.053 18.217-8.02 2.337-.45 4.354-.836 5.616-1.523 5.904-3.216 10.63-.104 12.52 4.15 2.076 4.666 1.03 11.4-5 14.69l-4.1 2.17c-8.6 4.468-13.887 7.51-13.887 13.522 0 10.84-7.343 28.745-23.095 33.178l-6.553 6.337c-.377.365-.842.544-1.306.544-.553 0-1.105-.255-1.497-.752z"/><path d="M30.622 105.938L1.598 74.523C1.216 74.1 1 73.544 1 72.952s.215-1.157.596-1.572c4.34-4.708 7.964-12.52 11.8-20.8 4.93-10.63 10.028-21.62 17.743-29.15 5.998-5.85 13.125-6.443 22.148-7.193l3.352-.287c1.1-.106 2.052.8 2.14 2.012s-.724 2.272-1.817 2.37l-3.38.3c-8.925.742-14.822 1.232-19.818 6.107-7.15 6.978-12.074 17.594-16.836 27.86-3.592 7.745-7.006 15.104-11.16 20.294l27.627 29.9a2.37 2.37 0 0 1 .031 3.11 1.89 1.89 0 0 1-1.42.66 1.89 1.89 0 0 1-1.39-.626zm21.392-39.845c-.074-1.212.753-2.26 1.848-2.34 8.996-.67 12.432-4.477 12.648-7.816.173-2.67-1.565-5.205-3.958-5.77-1.073-.253-1.757-1.42-1.528-2.6s1.285-1.946 2.357-1.692c4.36 1.03 7.4 5.493 7.092 10.385-.162 2.516-1.82 10.807-16.344 11.9a1.77 1.77 0 0 1-.136.005c-1.036 0-1.9-.9-1.98-2.05z"/><path d="M49.93 77.75c-1.05-.356-1.64-1.586-1.318-2.747s1.433-1.815 2.482-1.457c4.863 1.65 9.044.9 11.477-2.057 1.945-2.362 2.468-5.864 1.333-8.92-.417-1.123.068-2.408 1.08-2.87s2.176.074 2.594 1.197c1.716 4.62.903 9.942-2.072 13.556-2.364 2.872-5.712 4.355-9.598 4.356-1.883 0-3.893-.348-5.98-1.056zm43.243-29.678c-1.097 0-1.987-.984-1.987-2.2s.9-2.2 1.987-2.2h14.355c2.254 0 4.088-2.03 4.088-4.525V9.8c0-2.494-1.834-4.524-4.088-4.524h-44.65c-2.254 0-4.1 2.03-4.1 4.524v20.268c0 1.215-.9 2.2-1.987 2.2s-1.987-.984-1.987-2.2V9.8c0-4.918 3.616-8.92 8.062-8.92h44.65c4.446 0 8.06 4.003 8.06 8.92v29.35c0 4.92-3.615 8.923-8.06 8.923H93.173zm-12.453.275c-1.097 0-1.987-.984-1.987-2.2s.9-2.2 1.987-2.2h6.227c1.097 0 1.987.984 1.987 2.2s-.9 2.2-1.987 2.2H80.72zm-69.217-7.505c-.972-.564-1.348-1.893-.838-2.968 4.215-8.905 9-18.02 15.5-24.363 2.877-2.808 6.204-4.605 10.475-5.656 1.074-.263 2.134.484 2.37 1.67s-.437 2.36-1.508 2.624c-3.64.895-6.325 2.333-8.7 4.662-6.016 5.87-10.58 14.575-14.618 23.106-.355.75-1.047 1.18-1.762 1.18-.3 0-.626-.08-.92-.252zm31.17-31.8c-.094-1.2.715-2.275 1.8-2.38l3.65-.318.64-.053c1.103-.088 2.05.815 2.13 2.026s-.737 2.267-1.83 2.358l-.643.054-3.606.315-.173.008c-1.02 0-1.888-.864-1.977-2zM75.414 56.45c-1.097 0-1.987-.984-1.987-2.2s.9-2.2 1.987-2.2h18.982c1.097 0 1.987.984 1.987 2.2s-.9 2.2-1.987 2.2H75.414zm26.106-.158c-1.097 0-1.987-.984-1.987-2.2s.9-2.2 1.987-2.2h6.466c1.097 0 1.987.984 1.987 2.2s-.9 2.2-1.987 2.2h-6.466z"/><path d="M100.636 25.363l1.24 6.543c.062.33-.08.642-.38.84a1.01 1.01 0 0 1-1 .064L94 29.723a2.34 2.34 0 0 0-1-.223c-.343 0-.69.075-1.003.223l-6.495 3.09a1.01 1.01 0 0 1-1-.064c-.3-.2-.44-.512-.38-.84l1.242-6.543c.12-.63-.112-1.277-.62-1.725L79.5 19.006c-.264-.234-.355-.565-.24-.88s.402-.54.766-.586l7.265-.955c.7-.1 1.306-.488 1.62-1.064l3.247-5.954c.165-.3.484-.48.854-.48s.686.178.85.48l3.25 5.954c.3.576.917.974 1.62 1.064l7.263.955c.366.047.654.267.765.586a.79.79 0 0 1-.238.881l-5.256 4.632c-.508.448-.74 1.09-.62 1.725zm6.714-5.58c.6-.52.798-1.284.543-1.995s-.92-1.217-1.737-1.324l-7.266-.955a.95.95 0 0 1-.713-.47L94.93 9.085C94.565 8.417 93.825 8 93 8s-1.564.417-1.93 1.085l-3.247 5.954c-.138.252-.408.43-.716.47l-7.266.955c-.816.106-1.482.613-1.737 1.324s-.044 1.475.545 1.995l5.257 4.633c.223.2.325.483.273.762l-1.24 6.546c-.137.735.188 1.462.857 1.902s1.534.496 2.264.148l6.498-3.09c.275-.13.606-.13.885 0l6.494 3.09a2.35 2.35 0 0 0 1.003.226c.446 0 .886-.127 1.264-.374.666-.44.995-1.167.856-1.902l-1.243-6.546c-.053-.28.05-.563.276-.76l5.256-4.636z" stroke="#00693c" stroke-width="2"/></g></svg>