<svg xmlns="http://www.w3.org/2000/svg" xmlns:xlink="http://www.w3.org/1999/xlink" width="116" height="107"><style><![CDATA[.B{stroke:#00693c}.C{fill:#00693c}.D{fill:#69be28}.E{stroke-width:2}]]></style><g fill-rule="evenodd"><use xlink:href="#B" class="D"/><path d="M64.373 18.663l1.116 6.28a.8.8 0 0 1-.341.807.86.86 0 0 1-.9.061L58.4 22.846c-.28-.142-.592-.214-.9-.214a2.02 2.02 0 0 0-.903.214L50.752 25.8a.86.86 0 0 1-.9-.061c-.27-.19-.396-.49-.34-.807l1.118-6.28a1.83 1.83 0 0 0-.558-1.655l-4.73-4.445c-.237-.224-.32-.542-.217-.846a.83.83 0 0 1 .69-.562l6.54-.917c.63-.087 1.175-.468 1.457-1.02l2.922-5.713c.15-.288.435-.46.77-.46a.84.84 0 0 1 .765.459l2.926 5.713c.28.553.826.935 1.457 1.02l6.536.917c.33.045.588.256.69.562a.79.79 0 0 1-.214.846l-4.73 4.445c-.457.43-.666 1.047-.557 1.655zm6.042-5.355a1.81 1.81 0 0 0 .489-1.915c-.23-.682-.83-1.168-1.563-1.27l-6.54-.916c-.277-.04-.517-.21-.64-.45L59.238 3.04C58.908 2.4 58.242 2 57.5 2s-1.407.4-1.738 1.04L52.84 8.755a.86.86 0 0 1-.644.451l-6.54.916c-.734.102-1.334.588-1.563 1.27s-.04 1.416.49 1.915l4.73 4.446c.2.19.293.464.246.73l-1.117 6.282c-.124.705.17 1.403.772 1.825a1.98 1.98 0 0 0 2.037.142l5.848-2.967a.9.9 0 0 1 .797 0l5.845 2.967c.288.145.597.216.903.216a1.99 1.99 0 0 0 1.138-.359 1.83 1.83 0 0 0 .771-1.825l-1.12-6.282a.8.8 0 0 1 .249-.728l4.73-4.45z" class="B C E"/><path d="M84.697 21.035L82.2 27.263a1.4 1.4 0 0 1-1.035.852l-3.874.742a.35.35 0 0 0-.184.589l2.696 2.748a1.4 1.4 0 0 1 .352 1.347l-.912 3.36a.35.35 0 0 0 .483.41l3.623-1.645a1.4 1.4 0 0 1 1.243.042l6.81 3.975c1 .753 1.155.96.467.62l-1.23.47-1.575-.47-4.355-2.2-2.494.67-2.82 1.18-3.477 1.182v-4l.732-3.066v-.66l-3.005-3-2.1-2.824 3.26-.505 3.906-1.047 2.034-2.08 3.236-4.43 1.564 1.514-.368.59-.467-.59z" class="D"/><path d="M90.373 34.663l1.116 6.28a.8.8 0 0 1-.341.807.86.86 0 0 1-.9.061L84.4 38.846c-.28-.142-.592-.214-.9-.214a2.02 2.02 0 0 0-.903.214L76.752 41.8a.86.86 0 0 1-.9-.061c-.27-.19-.396-.49-.34-.807l1.118-6.28a1.83 1.83 0 0 0-.558-1.655l-4.73-4.445c-.237-.224-.32-.542-.217-.846a.83.83 0 0 1 .69-.562l6.54-.917c.63-.087 1.175-.468 1.457-1.02l2.922-5.713c.15-.288.435-.46.77-.46a.84.84 0 0 1 .765.459l2.926 5.713c.28.553.826.935 1.457 1.02l6.536.917c.33.045.588.256.69.562a.79.79 0 0 1-.214.846l-4.73 4.445c-.457.43-.666 1.047-.557 1.655zm6.042-5.355a1.81 1.81 0 0 0 .489-1.915c-.23-.682-.83-1.168-1.563-1.27l-6.54-.916c-.277-.04-.517-.21-.64-.45l-2.922-5.714c-.33-.64-.996-1.04-1.737-1.04s-1.407.4-1.738 1.04l-2.922 5.714a.86.86 0 0 1-.644.451l-6.54.916c-.734.102-1.334.588-1.563 1.27s-.04 1.416.49 1.915l4.73 4.446c.2.19.293.464.246.73l-1.117 6.282c-.124.705.17 1.403.772 1.825a1.98 1.98 0 0 0 2.037.142l5.848-2.967a.9.9 0 0 1 .797 0l5.845 2.967c.288.145.597.216.903.216a1.99 1.99 0 0 0 1.138-.359 1.83 1.83 0 0 0 .771-1.825l-1.12-6.282a.8.8 0 0 1 .249-.728l4.73-4.45z" class="B C E"/><use xlink:href="#B" x="-25.606" y="15.717" class="D"/><path d="M38.373 34.663l1.116 6.28a.8.8 0 0 1-.341.807.86.86 0 0 1-.9.061L32.4 38.846c-.28-.142-.592-.214-.9-.214a2.02 2.02 0 0 0-.903.214L24.752 41.8a.86.86 0 0 1-.9-.061c-.27-.19-.396-.49-.34-.807l1.118-6.28a1.83 1.83 0 0 0-.558-1.655l-4.73-4.445c-.237-.224-.32-.542-.217-.846a.83.83 0 0 1 .69-.562l6.54-.917c.63-.087 1.175-.468 1.457-1.02l2.922-5.713c.15-.288.435-.46.77-.46a.84.84 0 0 1 .765.459l2.926 5.713c.28.553.826.935 1.457 1.02l6.536.917c.33.045.588.256.69.562a.79.79 0 0 1-.214.846l-4.73 4.445c-.457.43-.666 1.047-.557 1.655zm6.042-5.355a1.81 1.81 0 0 0 .489-1.915c-.23-.682-.83-1.168-1.563-1.27l-6.54-.916c-.277-.04-.517-.21-.64-.45l-2.922-5.714c-.33-.64-.996-1.04-1.737-1.04s-1.407.4-1.738 1.04l-2.922 5.714a.86.86 0 0 1-.644.451l-6.54.916c-.734.102-1.334.588-1.563 1.27s-.04 1.416.49 1.915l4.73 4.446c.2.19.293.464.246.73l-1.117 6.282c-.124.705.17 1.403.772 1.825a1.98 1.98 0 0 0 2.037.142l5.848-2.967a.9.9 0 0 1 .797 0l5.845 2.967c.288.145.597.216.903.216a1.99 1.99 0 0 0 1.138-.359 1.83 1.83 0 0 0 .771-1.825l-1.12-6.282a.8.8 0 0 1 .249-.728l4.73-4.45z" class="B C E"/><path d="M21.96 70.345s5.658-8.74 21.025-7.973 41.812-.044 41.812-.044l-4.37-6.6-17 .518c-8.308-1.133-15.08-1.642-20.317-1.527s-10.077.88-14.52 2.296l-7.513 5.76-3.207 4.072 2.92 3.5m7.5 7.327v25.897c8.594-5.893 12.56-10.38 11.9-13.46s-4.628-7.226-11.9-12.438z" class="D"/><g class="B C"><path d="M37.92 88.21c-.584-.4-.74-1.174-.346-1.753 2.824-4.157 5.927-4.917 11.02-4.917a15.43 15.43 0 0 1 3.208.337 24.58 24.58 0 0 0 5.994.519l24.08-.855c4.467 0 8.66-2.37 10.94-6.182 1.613-2.696 3.6-5.418 6.107-8.322l12.2-14.2c.984-1.145 1.46-2.6 1.338-4.1s-.825-2.86-1.98-3.836-2.626-1.446-4.14-1.325-2.89.817-3.874 1.962L82.276 69.03l1.083-4.926a5.62 5.62 0 0 0 .131-1.161c0-3.1-2.554-5.65-5.694-5.673l-19.884-.15c-5.363.155-10.177-.617-13.695-1.182-2.01-.323-3.743-.6-4.9-.6-8.502 0-16.357 4.915-20.013 12.522-.303.63-1.064.897-1.7.598a1.26 1.26 0 0 1-.604-1.684c4.076-8.482 12.835-13.963 22.316-13.963 1.372 0 3.113.28 5.318.633 3.612.58 8.11 1.303 13.235 1.15l19.956.15c3.866.03 7.118 2.71 7.993 6.28l14.728-17.13c1.426-1.66 3.42-2.668 5.612-2.843s4.322.508 5.997 1.92 2.694 3.386 2.87 5.558a8.05 8.05 0 0 1-1.939 5.939l-12.21 14.2c-2.402 2.794-4.317 5.4-5.855 7.972-2.734 4.57-7.756 7.412-13.11 7.42l-24.012.854a27.13 27.13 0 0 1-6.622-.574 12.86 12.86 0 0 0-2.672-.28c-5.443 0-7.082 1.12-8.904 3.8a1.28 1.28 0 0 1-1.059.558c-.245 0-.492-.07-.71-.216z"/><path d="M59.306 70.834c-.7 0-1.285-.552-1.285-1.234s.575-1.234 1.285-1.234h18.596c3.205 0 5.812-2.504 5.812-5.582 0-.682.575-1.234 1.285-1.234s1.285.552 1.285 1.234c0 4.425-3.736 8.027-8.338 8.05h-18.64zm-54.7 8.03l23.936 23.588 9.307-9.17a3.55 3.55 0 0 0 0-5.065L19.062 69.7a3.68 3.68 0 0 0-5.139 0l-9.306 9.17zm23.936 27.152L1 78.863 12.115 67.9c2.414-2.38 6.34-2.38 8.755 0l18.797 18.524c2.414 2.38 2.414 6.25 0 8.628l-11.115 10.953z"/></g><path d="M53.558 69.856h2.48" fill="#fff"/><path d="M54.727 71.322h-2.354c-.72 0-1.302-.547-1.302-1.222s.583-1.222 1.302-1.222h2.354c.72 0 1.302.547 1.302 1.222s-.583 1.222-1.302 1.222" class="B C"/></g><defs ><path id="B" d="M58.09 5.318l-2.507 6.228a1.4 1.4 0 0 1-1.035.852l-3.874.742a.35.35 0 0 0-.184.589l2.696 2.748a1.4 1.4 0 0 1 .352 1.347l-.912 3.36a.35.35 0 0 0 .483.41l3.623-1.645a1.4 1.4 0 0 1 1.243.042l6.81 3.975c1 .753 1.155.96.467.62l-1.23.47-1.575-.47-4.355-2.2-2.494.67-2.82 1.18-2.58 1.182-.897-4 .732-3.066v-.66l-3.005-3-2.1-2.824 3.26-.505 3.906-1.047 2.034-2.08 3.236-4.43 1.564 1.514-.368.59-.467-.59z"/></defs></svg>