<svg xmlns="http://www.w3.org/2000/svg" xmlns:xlink="http://www.w3.org/1999/xlink" width="116" height="428" fill="none">

<defs>
  <symbol id="pagos">
    <path d="M100.636 25.363l1.24 6.543c.062.33-.08.642-.38.84a1.01 1.01 0 0 1-1 .064L94 29.723a2.34 2.34 0 0 0-1-.223c-.343 0-.69.075-1.003.223l-6.495 3.09a1.01 1.01 0 0 1-1-.064c-.3-.2-.44-.512-.38-.84l1.242-6.543c.12-.63-.112-1.277-.62-1.725L79.5 19.006c-.264-.234-.355-.565-.24-.88s.402-.54.766-.586l7.265-.955c.7-.1 1.306-.488 1.62-1.064l3.247-5.954c.165-.3.484-.48.854-.48s.686.178.85.48l3.25 5.954c.3.576.917.974 1.62 1.064l7.263.955c.366.047.654.267.765.586a.79.79 0 0 1-.238.881l-5.256 4.632c-.508.448-.74 1.09-.62 1.725zm6.714-5.58c.6-.52.798-1.284.543-1.995s-.92-1.217-1.737-1.324l-7.266-.955a.95.95 0 0 1-.713-.47L94.93 9.085C94.565 8.417 93.825 8 93 8s-1.564.417-1.93 1.085l-3.247 5.954c-.138.252-.408.43-.716.47l-7.266.955c-.816.106-1.482.613-1.737 1.324s-.044 1.475.545 1.995l5.257 4.633c.223.2.325.483.273.762l-1.24 6.546c-.137.735.188 1.462.857 1.902s1.534.496 2.264.148l6.498-3.09c.275-.13.606-.13.885 0l6.494 3.09a2.35 2.35 0 0 0 1.003.226c.446 0 .886-.127 1.264-.374.666-.44.995-1.167.856-1.902l-1.243-6.546c-.053-.28.05-.563.276-.76l5.256-4.636z" fill="#dfdfdf" stroke="#dfdfdf" stroke-width="2"/><path d="M67.6 36.063c-9.502 5.196-19.063 8.66-19.063 17.665s-6.1 27.013-22.003 31.17l-6.63 6.427 5.808 6.326 6.902-6.7c15.893-4.156 22.003-22.165 22.003-31.17s9.56-12.47 19.064-17.664c7.93-4.336 5.238-15.417-1.4-15.947.715 3.5-.526 7.613-4.68 9.884zM62.347 28.3l2.548-.666 4.476-1.307V3.08h-7.386c-2.93 0-5.306 2.635-5.306 5.885V30.02a12.62 12.62 0 0 1 4.418-1.43c-2.317.294.78-.2 1.25-.3z" fill="#ebecee"/><g fill="#dfdfdf"><path d="M24.216 99.097c-.72-.915-.636-2.304.19-3.103l6.903-6.7c.243-.236.534-.402.85-.485 15.32-4.005 20.475-21.612 20.475-29.03 0-9.11 7.84-13.19 16.14-17.504l4.03-2.133c3.92-2.144 4.4-6.065 3.185-8.8-1-2.253-3.483-4.17-7.186-2.145-1.77.966-4.044 1.403-6.677 1.9-4.844.93-10.87 2.09-16.335 7.08-3.912 3.577-8.002 3.943-10.67.96-.77-.863-.765-2.255.013-3.1s2.03-.85 2.803.013c1.605 1.798 4.264-.28 5.333-1.256 6.275-5.73 13.154-7.053 18.177-8.02 2.332-.45 4.345-.836 5.604-1.523 5.89-3.216 10.605-.104 12.493 4.15 2.072 4.666 1.027 11.4-4.99 14.69l-4.1 2.17c-8.59 4.468-13.857 7.51-13.857 13.522 0 10.84-7.327 28.745-23.044 33.178l-6.54 6.337c-.376.365-.84.544-1.303.544-.552 0-1.102-.255-1.494-.752z"/><path d="M30.557 105.938L1.596 74.523A2.32 2.32 0 0 1 1 72.952a2.33 2.33 0 0 1 .595-1.572c4.33-4.708 7.947-12.52 11.775-20.8 4.92-10.63 10.006-21.62 17.704-29.15 5.985-5.85 13.096-6.443 22.1-7.193l3.345-.287c1.1-.106 2.048.8 2.137 2.012s-.722 2.272-1.813 2.37l-3.37.3c-8.905.742-14.8 1.232-19.775 6.107-7.135 6.978-12.048 17.594-16.8 27.86-3.585 7.745-7 15.104-11.134 20.294l27.566 29.9a2.36 2.36 0 0 1 .03 3.1c-.388.44-.902.66-1.417.66a1.88 1.88 0 0 1-1.386-.626zM51.9 66.093c-.074-1.212.752-2.26 1.844-2.34 8.976-.67 12.404-4.477 12.62-7.816.173-2.67-1.562-5.205-3.95-5.77-1.07-.253-1.753-1.42-1.525-2.6s1.282-1.946 2.352-1.692c4.35 1.03 7.393 5.493 7.076 10.385-.162 2.516-1.817 10.807-16.308 11.9a1.76 1.76 0 0 1-.136.005c-1.034 0-1.904-.9-1.975-2.05z"/><path d="M49.822 77.75c-1.047-.356-1.636-1.586-1.315-2.747s1.43-1.815 2.476-1.457c4.852 1.65 9.024.9 11.452-2.057 1.94-2.362 2.463-5.864 1.33-8.92-.416-1.123.067-2.408 1.08-2.87s2.17.074 2.588 1.197c1.713 4.62.9 9.942-2.067 13.556-2.36 2.872-5.7 4.355-9.577 4.356-1.88 0-3.884-.348-5.965-1.056zM92.97 48.072c-1.094 0-1.982-.984-1.982-2.2s.888-2.2 1.982-2.2h14.324c2.25 0 4.08-2.03 4.08-4.525V9.8c0-2.494-1.83-4.524-4.08-4.524H62.742c-2.25 0-4.08 2.03-4.08 4.524v20.268c0 1.215-.887 2.2-1.982 2.2s-1.982-.984-1.982-2.2V9.8c0-4.918 3.608-8.92 8.044-8.92h44.552c4.436 0 8.044 4.003 8.044 8.92v29.35c0 4.92-3.608 8.923-8.044 8.923H92.97zm-12.427.275c-1.095 0-1.982-.984-1.982-2.2s.887-2.2 1.982-2.2h6.213c1.095 0 1.982.984 1.982 2.2s-.887 2.2-1.982 2.2h-6.213zM11.48 40.842c-.97-.564-1.345-1.893-.836-2.968 4.205-8.905 9-18.02 15.477-24.363 2.87-2.808 6.2-4.605 10.45-5.656 1.07-.263 2.13.484 2.366 1.67s-.436 2.36-1.505 2.624c-3.63.895-6.3 2.333-8.7 4.662-6.003 5.87-10.558 14.575-14.585 23.106-.354.75-1.044 1.18-1.758 1.18-.3 0-.625-.08-.918-.252zm31.1-31.8c-.094-1.2.714-2.275 1.805-2.38l3.642-.318.64-.053c1.1-.088 2.044.815 2.126 2.026s-.736 2.267-1.827 2.358l-.64.054-3.598.315-.173.008c-1.017 0-1.884-.864-1.973-2zM75.25 56.45c-1.094 0-1.982-.984-1.982-2.2s.888-2.2 1.982-2.2H94.2c1.095 0 1.982.984 1.982 2.2s-.887 2.2-1.982 2.2H75.25zm26.047-.158c-1.095 0-1.982-.984-1.982-2.2s.887-2.2 1.982-2.2h6.452c1.095 0 1.982.984 1.982 2.2s-.887 2.2-1.982 2.2h-6.452z"/></g>
  </symbol>

  <symbol id="pagos-verde">
    <path d="M67.746 36.063c-9.523 5.196-19.105 8.66-19.105 17.665S42.517 80.74 26.6 84.897l-6.646 6.427 5.82 6.326 6.917-6.7c15.928-4.156 22.05-22.165 22.05-31.17s9.58-12.47 19.106-17.664c7.947-4.336 5.25-15.417-1.402-15.947.717 3.5-.527 7.613-4.7 9.884zM62.482 28.3l2.554-.666 4.486-1.307V3.08H62.12c-2.937 0-5.318 2.635-5.318 5.885V30.02a12.69 12.69 0 0 1 4.428-1.43c-2.322.294.78-.2 1.252-.3z" fill="#69be28"/><g fill="#00693c"><path d="M24.267 99.097a2.37 2.37 0 0 1 .189-3.103l6.918-6.7a1.92 1.92 0 0 1 .851-.485c15.353-4.005 20.52-21.612 20.52-29.03 0-9.11 7.856-13.19 16.174-17.504l4.04-2.133c3.93-2.144 4.41-6.065 3.192-8.8-1.003-2.253-3.49-4.17-7.202-2.145-1.775.966-4.053 1.403-6.69 1.9-4.854.93-10.893 2.09-16.37 7.08-3.92 3.577-8.02 3.943-10.692.96a2.37 2.37 0 0 1 .013-3.11 1.85 1.85 0 0 1 2.809.013c1.608 1.798 4.273-.28 5.345-1.256 6.29-5.73 13.183-7.053 18.217-8.02 2.337-.45 4.354-.836 5.616-1.523 5.904-3.216 10.63-.104 12.52 4.15 2.076 4.666 1.03 11.4-5 14.69l-4.1 2.17c-8.6 4.468-13.887 7.51-13.887 13.522 0 10.84-7.343 28.745-23.095 33.178l-6.553 6.337c-.377.365-.842.544-1.306.544-.553 0-1.105-.255-1.497-.752z"/><path d="M30.622 105.938L1.598 74.523C1.216 74.1 1 73.544 1 72.952s.215-1.157.596-1.572c4.34-4.708 7.964-12.52 11.8-20.8 4.93-10.63 10.028-21.62 17.743-29.15 5.998-5.85 13.125-6.443 22.148-7.193l3.352-.287c1.1-.106 2.052.8 2.14 2.012s-.724 2.272-1.817 2.37l-3.38.3c-8.925.742-14.822 1.232-19.818 6.107-7.15 6.978-12.074 17.594-16.836 27.86-3.592 7.745-7.006 15.104-11.16 20.294l27.627 29.9a2.37 2.37 0 0 1 .031 3.11 1.89 1.89 0 0 1-1.42.66 1.89 1.89 0 0 1-1.39-.626zm21.392-39.845c-.074-1.212.753-2.26 1.848-2.34 8.996-.67 12.432-4.477 12.648-7.816.173-2.67-1.565-5.205-3.958-5.77-1.073-.253-1.757-1.42-1.528-2.6s1.285-1.946 2.357-1.692c4.36 1.03 7.4 5.493 7.092 10.385-.162 2.516-1.82 10.807-16.344 11.9a1.77 1.77 0 0 1-.136.005c-1.036 0-1.9-.9-1.98-2.05z"/><path d="M49.93 77.75c-1.05-.356-1.64-1.586-1.318-2.747s1.433-1.815 2.482-1.457c4.863 1.65 9.044.9 11.477-2.057 1.945-2.362 2.468-5.864 1.333-8.92-.417-1.123.068-2.408 1.08-2.87s2.176.074 2.594 1.197c1.716 4.62.903 9.942-2.072 13.556-2.364 2.872-5.712 4.355-9.598 4.356-1.883 0-3.893-.348-5.98-1.056zm43.243-29.678c-1.097 0-1.987-.984-1.987-2.2s.9-2.2 1.987-2.2h14.355c2.254 0 4.088-2.03 4.088-4.525V9.8c0-2.494-1.834-4.524-4.088-4.524h-44.65c-2.254 0-4.1 2.03-4.1 4.524v20.268c0 1.215-.9 2.2-1.987 2.2s-1.987-.984-1.987-2.2V9.8c0-4.918 3.616-8.92 8.062-8.92h44.65c4.446 0 8.06 4.003 8.06 8.92v29.35c0 4.92-3.615 8.923-8.06 8.923H93.173zm-12.453.275c-1.097 0-1.987-.984-1.987-2.2s.9-2.2 1.987-2.2h6.227c1.097 0 1.987.984 1.987 2.2s-.9 2.2-1.987 2.2H80.72zm-69.217-7.505c-.972-.564-1.348-1.893-.838-2.968 4.215-8.905 9-18.02 15.5-24.363 2.877-2.808 6.204-4.605 10.475-5.656 1.074-.263 2.134.484 2.37 1.67s-.437 2.36-1.508 2.624c-3.64.895-6.325 2.333-8.7 4.662-6.016 5.87-10.58 14.575-14.618 23.106-.355.75-1.047 1.18-1.762 1.18-.3 0-.626-.08-.92-.252zm31.17-31.8c-.094-1.2.715-2.275 1.8-2.38l3.65-.318.64-.053c1.103-.088 2.05.815 2.13 2.026s-.737 2.267-1.83 2.358l-.643.054-3.606.315-.173.008c-1.02 0-1.888-.864-1.977-2zM75.414 56.45c-1.097 0-1.987-.984-1.987-2.2s.9-2.2 1.987-2.2h18.982c1.097 0 1.987.984 1.987 2.2s-.9 2.2-1.987 2.2H75.414zm26.106-.158c-1.097 0-1.987-.984-1.987-2.2s.9-2.2 1.987-2.2h6.466c1.097 0 1.987.984 1.987 2.2s-.9 2.2-1.987 2.2h-6.466z"/><path d="M100.636 25.363l1.24 6.543c.062.33-.08.642-.38.84a1.01 1.01 0 0 1-1 .064L94 29.723a2.34 2.34 0 0 0-1-.223c-.343 0-.69.075-1.003.223l-6.495 3.09a1.01 1.01 0 0 1-1-.064c-.3-.2-.44-.512-.38-.84l1.242-6.543c.12-.63-.112-1.277-.62-1.725L79.5 19.006c-.264-.234-.355-.565-.24-.88s.402-.54.766-.586l7.265-.955c.7-.1 1.306-.488 1.62-1.064l3.247-5.954c.165-.3.484-.48.854-.48s.686.178.85.48l3.25 5.954c.3.576.917.974 1.62 1.064l7.263.955c.366.047.654.267.765.586a.79.79 0 0 1-.238.881l-5.256 4.632c-.508.448-.74 1.09-.62 1.725zm6.714-5.58c.6-.52.798-1.284.543-1.995s-.92-1.217-1.737-1.324l-7.266-.955a.95.95 0 0 1-.713-.47L94.93 9.085C94.565 8.417 93.825 8 93 8s-1.564.417-1.93 1.085l-3.247 5.954c-.138.252-.408.43-.716.47l-7.266.955c-.816.106-1.482.613-1.737 1.324s-.044 1.475.545 1.995l5.257 4.633c.223.2.325.483.273.762l-1.24 6.546c-.137.735.188 1.462.857 1.902s1.534.496 2.264.148l6.498-3.09c.275-.13.606-.13.885 0l6.494 3.09a2.35 2.35 0 0 0 1.003.226c.446 0 .886-.127 1.264-.374.666-.44.995-1.167.856-1.902l-1.243-6.546c-.053-.28.05-.563.276-.76l5.256-4.636z" stroke="#00693c" stroke-width="2"/></g>
  </symbol>

  <symbol id="puntopromerica">
    <g fill-rule="evenodd" opacity=".35"><use xlink:href="#B" fill="#c0c4ca"/><path d="M64.373 18.663l1.116 6.28a.8.8 0 0 1-.341.807.86.86 0 0 1-.9.061L58.4 22.846c-.28-.142-.592-.214-.9-.214a2.02 2.02 0 0 0-.903.214L50.752 25.8a.86.86 0 0 1-.9-.061c-.27-.19-.396-.49-.34-.807l1.118-6.28a1.83 1.83 0 0 0-.558-1.655l-4.73-4.445c-.237-.224-.32-.542-.217-.846a.83.83 0 0 1 .69-.562l6.54-.917c.63-.087 1.175-.468 1.457-1.02l2.922-5.713c.15-.288.435-.46.77-.46a.84.84 0 0 1 .765.459l2.926 5.713c.28.553.826.935 1.457 1.02l6.536.917c.33.045.588.256.69.562a.79.79 0 0 1-.214.846l-4.73 4.445c-.457.43-.666 1.047-.557 1.655zm6.042-5.355a1.81 1.81 0 0 0 .489-1.915c-.23-.682-.83-1.168-1.563-1.27l-6.54-.916c-.277-.04-.517-.21-.64-.45L59.238 3.04C58.908 2.4 58.242 2 57.5 2s-1.407.4-1.738 1.04L52.84 8.755a.86.86 0 0 1-.644.451l-6.54.916c-.734.102-1.334.588-1.563 1.27s-.04 1.416.49 1.915l4.73 4.446c.2.19.293.464.246.73l-1.117 6.282c-.124.705.17 1.403.772 1.825a1.98 1.98 0 0 0 2.037.142l5.848-2.967a.9.9 0 0 1 .797 0l5.845 2.967c.288.145.597.216.903.216a1.99 1.99 0 0 0 1.138-.359 1.83 1.83 0 0 0 .771-1.825l-1.12-6.282a.8.8 0 0 1 .249-.728l4.73-4.45z" stroke="#afaeae" stroke-width="2" fill="#858484"/><path d="M84.697 21.035L82.2 27.263a1.4 1.4 0 0 1-1.035.852l-3.874.742a.35.35 0 0 0-.184.589l2.696 2.748a1.4 1.4 0 0 1 .352 1.347l-.912 3.36a.35.35 0 0 0 .483.41l3.623-1.645a1.4 1.4 0 0 1 1.243.042l6.81 3.975c1 .753 1.155.96.467.62l-1.23.47-1.575-.47-4.355-2.2-2.494.67-2.82 1.18-3.477 1.182v-4l.732-3.066v-.66l-3.005-3-2.1-2.824 3.26-.505 3.906-1.047 2.034-2.08 3.236-4.43 1.564 1.514-.368.59-.467-.59z" fill="#c0c4ca"/><path d="M90.373 34.663l1.116 6.28a.8.8 0 0 1-.341.807.86.86 0 0 1-.9.061L84.4 38.846c-.28-.142-.592-.214-.9-.214a2.02 2.02 0 0 0-.903.214L76.752 41.8a.86.86 0 0 1-.9-.061c-.27-.19-.396-.49-.34-.807l1.118-6.28a1.83 1.83 0 0 0-.558-1.655l-4.73-4.445c-.237-.224-.32-.542-.217-.846a.83.83 0 0 1 .69-.562l6.54-.917c.63-.087 1.175-.468 1.457-1.02l2.922-5.713c.15-.288.435-.46.77-.46a.84.84 0 0 1 .765.459l2.926 5.713c.28.553.826.935 1.457 1.02l6.536.917c.33.045.588.256.69.562a.79.79 0 0 1-.214.846l-4.73 4.445c-.457.43-.666 1.047-.557 1.655zm6.042-5.355a1.81 1.81 0 0 0 .489-1.915c-.23-.682-.83-1.168-1.563-1.27l-6.54-.916c-.277-.04-.517-.21-.64-.45l-2.922-5.714c-.33-.64-.996-1.04-1.737-1.04s-1.407.4-1.738 1.04l-2.922 5.714a.86.86 0 0 1-.644.451l-6.54.916c-.734.102-1.334.588-1.563 1.27s-.04 1.416.49 1.915l4.73 4.446c.2.19.293.464.246.73l-1.117 6.282c-.124.705.17 1.403.772 1.825a1.98 1.98 0 0 0 2.037.142l5.848-2.967a.9.9 0 0 1 .797 0l5.845 2.967c.288.145.597.216.903.216a1.99 1.99 0 0 0 1.138-.359 1.83 1.83 0 0 0 .771-1.825l-1.12-6.282a.8.8 0 0 1 .249-.728l4.73-4.45z" stroke="#afaeae" stroke-width="2" fill="#afaeae"/><use xlink:href="#B" x="-25.606" y="15.717" fill="#c0c4ca"/><path d="M38.373 34.663l1.116 6.28a.8.8 0 0 1-.341.807.86.86 0 0 1-.9.061L32.4 38.846c-.28-.142-.592-.214-.9-.214a2.02 2.02 0 0 0-.903.214L24.752 41.8a.86.86 0 0 1-.9-.061c-.27-.19-.396-.49-.34-.807l1.118-6.28a1.83 1.83 0 0 0-.558-1.655l-4.73-4.445c-.237-.224-.32-.542-.217-.846a.83.83 0 0 1 .69-.562l6.54-.917c.63-.087 1.175-.468 1.457-1.02l2.922-5.713c.15-.288.435-.46.77-.46a.84.84 0 0 1 .765.459l2.926 5.713c.28.553.826.935 1.457 1.02l6.536.917c.33.045.588.256.69.562a.79.79 0 0 1-.214.846l-4.73 4.445c-.457.43-.666 1.047-.557 1.655zm6.042-5.355a1.81 1.81 0 0 0 .489-1.915c-.23-.682-.83-1.168-1.563-1.27l-6.54-.916c-.277-.04-.517-.21-.64-.45l-2.922-5.714c-.33-.64-.996-1.04-1.737-1.04s-1.407.4-1.738 1.04l-2.922 5.714a.86.86 0 0 1-.644.451l-6.54.916c-.734.102-1.334.588-1.563 1.27s-.04 1.416.49 1.915l4.73 4.446c.2.19.293.464.246.73l-1.117 6.282c-.124.705.17 1.403.772 1.825a1.98 1.98 0 0 0 2.037.142l5.848-2.967a.9.9 0 0 1 .797 0l5.845 2.967c.288.145.597.216.903.216a1.99 1.99 0 0 0 1.138-.359 1.83 1.83 0 0 0 .771-1.825l-1.12-6.282a.8.8 0 0 1 .249-.728l4.73-4.45z" stroke="#afaeae" stroke-width="2" fill="#afaeae"/><path d="M21.96 70.345s5.658-8.74 21.025-7.973 41.812-.044 41.812-.044l-4.37-6.6-17 .518c-8.308-1.133-15.08-1.642-20.317-1.527s-10.077.88-14.52 2.296l-7.513 5.76-3.207 4.072 2.92 3.5m7.5 7.327v25.897c8.594-5.893 12.56-10.38 11.9-13.46s-4.628-7.226-11.9-12.438z" fill="#d1d3d7"/><path d="M37.92 88.21c-.584-.4-.74-1.174-.346-1.753 2.824-4.157 5.927-4.917 11.02-4.917a15.43 15.43 0 0 1 3.208.337 24.58 24.58 0 0 0 5.994.519l24.08-.855c4.467 0 8.66-2.37 10.94-6.182 1.613-2.696 3.6-5.418 6.107-8.322l12.2-14.2c.984-1.145 1.46-2.6 1.338-4.1s-.825-2.86-1.98-3.836-2.626-1.446-4.14-1.325-2.89.817-3.874 1.962L82.276 69.03l1.083-4.926a5.62 5.62 0 0 0 .131-1.161c0-3.1-2.554-5.65-5.694-5.673l-19.884-.15c-5.363.155-10.177-.617-13.695-1.182-2.01-.323-3.743-.6-4.9-.6-8.502 0-16.357 4.915-20.013 12.522-.303.63-1.064.897-1.7.598a1.26 1.26 0 0 1-.604-1.684c4.076-8.482 12.835-13.963 22.316-13.963 1.372 0 3.113.28 5.318.633 3.612.58 8.11 1.303 13.235 1.15l19.956.15c3.866.03 7.118 2.71 7.993 6.28l14.728-17.13c1.426-1.66 3.42-2.668 5.612-2.843s4.322.508 5.997 1.92 2.694 3.386 2.87 5.558a8.05 8.05 0 0 1-1.939 5.939l-12.21 14.2c-2.402 2.794-4.317 5.4-5.855 7.972-2.734 4.57-7.756 7.412-13.11 7.42l-24.012.854a27.13 27.13 0 0 1-6.622-.574 12.86 12.86 0 0 0-2.672-.28c-5.443 0-7.082 1.12-8.904 3.8a1.28 1.28 0 0 1-1.059.558c-.245 0-.492-.07-.71-.216z" stroke="#aeaeae" fill="#aeaeae"/><path d="M59.306 70.834c-.7 0-1.285-.552-1.285-1.234s.575-1.234 1.285-1.234h18.596c3.205 0 5.812-2.504 5.812-5.582 0-.682.575-1.234 1.285-1.234s1.285.552 1.285 1.234c0 4.425-3.736 8.027-8.338 8.05h-18.64zm-54.7 8.03l23.936 23.588 9.307-9.17a3.55 3.55 0 0 0 0-5.065L19.062 69.7a3.68 3.68 0 0 0-5.139 0l-9.306 9.17zm23.936 27.152L1 78.863 12.115 67.9c2.414-2.38 6.34-2.38 8.755 0l18.797 18.524c2.414 2.38 2.414 6.25 0 8.628l-11.115 10.953z" stroke="#afaeae" fill="#afaeae"/><path d="M53.558 69.856h2.48" fill="#fff"/><path d="M54.727 71.322h-2.354c-.72 0-1.302-.547-1.302-1.222s.583-1.222 1.302-1.222h2.354c.72 0 1.302.547 1.302 1.222s-.583 1.222-1.302 1.222" stroke="#afaeae" fill="#afaeae"/></g><defs ><path id="B" d="M58.09 5.318l-2.507 6.228a1.4 1.4 0 0 1-1.035.852l-3.874.742a.35.35 0 0 0-.184.589l2.696 2.748a1.4 1.4 0 0 1 .352 1.347l-.912 3.36a.35.35 0 0 0 .483.41l3.623-1.645a1.4 1.4 0 0 1 1.243.042l6.81 3.975c1 .753 1.155.96.467.62l-1.23.47-1.575-.47-4.355-2.2-2.494.67-2.82 1.18-2.58 1.182-.897-4 .732-3.066v-.66l-3.005-3-2.1-2.824 3.26-.505 3.906-1.047 2.034-2.08 3.236-4.43 1.564 1.514-.368.59-.467-.59z"/></defs>
  </symbol>

  <symbol id="puntopromerica-verde">
    <style><![CDATA[.B{stroke:#00693c}.C{fill:#00693c}.D{fill:#69be28}.E{stroke-width:2}]]></style><g fill-rule="evenodd"><use xlink:href="#B" class="D"/><path d="M64.373 18.663l1.116 6.28a.8.8 0 0 1-.341.807.86.86 0 0 1-.9.061L58.4 22.846c-.28-.142-.592-.214-.9-.214a2.02 2.02 0 0 0-.903.214L50.752 25.8a.86.86 0 0 1-.9-.061c-.27-.19-.396-.49-.34-.807l1.118-6.28a1.83 1.83 0 0 0-.558-1.655l-4.73-4.445c-.237-.224-.32-.542-.217-.846a.83.83 0 0 1 .69-.562l6.54-.917c.63-.087 1.175-.468 1.457-1.02l2.922-5.713c.15-.288.435-.46.77-.46a.84.84 0 0 1 .765.459l2.926 5.713c.28.553.826.935 1.457 1.02l6.536.917c.33.045.588.256.69.562a.79.79 0 0 1-.214.846l-4.73 4.445c-.457.43-.666 1.047-.557 1.655zm6.042-5.355a1.81 1.81 0 0 0 .489-1.915c-.23-.682-.83-1.168-1.563-1.27l-6.54-.916c-.277-.04-.517-.21-.64-.45L59.238 3.04C58.908 2.4 58.242 2 57.5 2s-1.407.4-1.738 1.04L52.84 8.755a.86.86 0 0 1-.644.451l-6.54.916c-.734.102-1.334.588-1.563 1.27s-.04 1.416.49 1.915l4.73 4.446c.2.19.293.464.246.73l-1.117 6.282c-.124.705.17 1.403.772 1.825a1.98 1.98 0 0 0 2.037.142l5.848-2.967a.9.9 0 0 1 .797 0l5.845 2.967c.288.145.597.216.903.216a1.99 1.99 0 0 0 1.138-.359 1.83 1.83 0 0 0 .771-1.825l-1.12-6.282a.8.8 0 0 1 .249-.728l4.73-4.45z" class="B C E"/><path d="M84.697 21.035L82.2 27.263a1.4 1.4 0 0 1-1.035.852l-3.874.742a.35.35 0 0 0-.184.589l2.696 2.748a1.4 1.4 0 0 1 .352 1.347l-.912 3.36a.35.35 0 0 0 .483.41l3.623-1.645a1.4 1.4 0 0 1 1.243.042l6.81 3.975c1 .753 1.155.96.467.62l-1.23.47-1.575-.47-4.355-2.2-2.494.67-2.82 1.18-3.477 1.182v-4l.732-3.066v-.66l-3.005-3-2.1-2.824 3.26-.505 3.906-1.047 2.034-2.08 3.236-4.43 1.564 1.514-.368.59-.467-.59z" class="D"/><path d="M90.373 34.663l1.116 6.28a.8.8 0 0 1-.341.807.86.86 0 0 1-.9.061L84.4 38.846c-.28-.142-.592-.214-.9-.214a2.02 2.02 0 0 0-.903.214L76.752 41.8a.86.86 0 0 1-.9-.061c-.27-.19-.396-.49-.34-.807l1.118-6.28a1.83 1.83 0 0 0-.558-1.655l-4.73-4.445c-.237-.224-.32-.542-.217-.846a.83.83 0 0 1 .69-.562l6.54-.917c.63-.087 1.175-.468 1.457-1.02l2.922-5.713c.15-.288.435-.46.77-.46a.84.84 0 0 1 .765.459l2.926 5.713c.28.553.826.935 1.457 1.02l6.536.917c.33.045.588.256.69.562a.79.79 0 0 1-.214.846l-4.73 4.445c-.457.43-.666 1.047-.557 1.655zm6.042-5.355a1.81 1.81 0 0 0 .489-1.915c-.23-.682-.83-1.168-1.563-1.27l-6.54-.916c-.277-.04-.517-.21-.64-.45l-2.922-5.714c-.33-.64-.996-1.04-1.737-1.04s-1.407.4-1.738 1.04l-2.922 5.714a.86.86 0 0 1-.644.451l-6.54.916c-.734.102-1.334.588-1.563 1.27s-.04 1.416.49 1.915l4.73 4.446c.2.19.293.464.246.73l-1.117 6.282c-.124.705.17 1.403.772 1.825a1.98 1.98 0 0 0 2.037.142l5.848-2.967a.9.9 0 0 1 .797 0l5.845 2.967c.288.145.597.216.903.216a1.99 1.99 0 0 0 1.138-.359 1.83 1.83 0 0 0 .771-1.825l-1.12-6.282a.8.8 0 0 1 .249-.728l4.73-4.45z" class="B C E"/><use xlink:href="#B" x="-25.606" y="15.717" class="D"/><path d="M38.373 34.663l1.116 6.28a.8.8 0 0 1-.341.807.86.86 0 0 1-.9.061L32.4 38.846c-.28-.142-.592-.214-.9-.214a2.02 2.02 0 0 0-.903.214L24.752 41.8a.86.86 0 0 1-.9-.061c-.27-.19-.396-.49-.34-.807l1.118-6.28a1.83 1.83 0 0 0-.558-1.655l-4.73-4.445c-.237-.224-.32-.542-.217-.846a.83.83 0 0 1 .69-.562l6.54-.917c.63-.087 1.175-.468 1.457-1.02l2.922-5.713c.15-.288.435-.46.77-.46a.84.84 0 0 1 .765.459l2.926 5.713c.28.553.826.935 1.457 1.02l6.536.917c.33.045.588.256.69.562a.79.79 0 0 1-.214.846l-4.73 4.445c-.457.43-.666 1.047-.557 1.655zm6.042-5.355a1.81 1.81 0 0 0 .489-1.915c-.23-.682-.83-1.168-1.563-1.27l-6.54-.916c-.277-.04-.517-.21-.64-.45l-2.922-5.714c-.33-.64-.996-1.04-1.737-1.04s-1.407.4-1.738 1.04l-2.922 5.714a.86.86 0 0 1-.644.451l-6.54.916c-.734.102-1.334.588-1.563 1.27s-.04 1.416.49 1.915l4.73 4.446c.2.19.293.464.246.73l-1.117 6.282c-.124.705.17 1.403.772 1.825a1.98 1.98 0 0 0 2.037.142l5.848-2.967a.9.9 0 0 1 .797 0l5.845 2.967c.288.145.597.216.903.216a1.99 1.99 0 0 0 1.138-.359 1.83 1.83 0 0 0 .771-1.825l-1.12-6.282a.8.8 0 0 1 .249-.728l4.73-4.45z" class="B C E"/><path d="M21.96 70.345s5.658-8.74 21.025-7.973 41.812-.044 41.812-.044l-4.37-6.6-17 .518c-8.308-1.133-15.08-1.642-20.317-1.527s-10.077.88-14.52 2.296l-7.513 5.76-3.207 4.072 2.92 3.5m7.5 7.327v25.897c8.594-5.893 12.56-10.38 11.9-13.46s-4.628-7.226-11.9-12.438z" class="D"/><g class="B C"><path d="M37.92 88.21c-.584-.4-.74-1.174-.346-1.753 2.824-4.157 5.927-4.917 11.02-4.917a15.43 15.43 0 0 1 3.208.337 24.58 24.58 0 0 0 5.994.519l24.08-.855c4.467 0 8.66-2.37 10.94-6.182 1.613-2.696 3.6-5.418 6.107-8.322l12.2-14.2c.984-1.145 1.46-2.6 1.338-4.1s-.825-2.86-1.98-3.836-2.626-1.446-4.14-1.325-2.89.817-3.874 1.962L82.276 69.03l1.083-4.926a5.62 5.62 0 0 0 .131-1.161c0-3.1-2.554-5.65-5.694-5.673l-19.884-.15c-5.363.155-10.177-.617-13.695-1.182-2.01-.323-3.743-.6-4.9-.6-8.502 0-16.357 4.915-20.013 12.522-.303.63-1.064.897-1.7.598a1.26 1.26 0 0 1-.604-1.684c4.076-8.482 12.835-13.963 22.316-13.963 1.372 0 3.113.28 5.318.633 3.612.58 8.11 1.303 13.235 1.15l19.956.15c3.866.03 7.118 2.71 7.993 6.28l14.728-17.13c1.426-1.66 3.42-2.668 5.612-2.843s4.322.508 5.997 1.92 2.694 3.386 2.87 5.558a8.05 8.05 0 0 1-1.939 5.939l-12.21 14.2c-2.402 2.794-4.317 5.4-5.855 7.972-2.734 4.57-7.756 7.412-13.11 7.42l-24.012.854a27.13 27.13 0 0 1-6.622-.574 12.86 12.86 0 0 0-2.672-.28c-5.443 0-7.082 1.12-8.904 3.8a1.28 1.28 0 0 1-1.059.558c-.245 0-.492-.07-.71-.216z"/><path d="M59.306 70.834c-.7 0-1.285-.552-1.285-1.234s.575-1.234 1.285-1.234h18.596c3.205 0 5.812-2.504 5.812-5.582 0-.682.575-1.234 1.285-1.234s1.285.552 1.285 1.234c0 4.425-3.736 8.027-8.338 8.05h-18.64zm-54.7 8.03l23.936 23.588 9.307-9.17a3.55 3.55 0 0 0 0-5.065L19.062 69.7a3.68 3.68 0 0 0-5.139 0l-9.306 9.17zm23.936 27.152L1 78.863 12.115 67.9c2.414-2.38 6.34-2.38 8.755 0l18.797 18.524c2.414 2.38 2.414 6.25 0 8.628l-11.115 10.953z"/></g><path d="M53.558 69.856h2.48" fill="#fff"/><path d="M54.727 71.322h-2.354c-.72 0-1.302-.547-1.302-1.222s.583-1.222 1.302-1.222h2.354c.72 0 1.302.547 1.302 1.222s-.583 1.222-1.302 1.222" class="B C"/></g><defs ><path id="B" d="M58.09 5.318l-2.507 6.228a1.4 1.4 0 0 1-1.035.852l-3.874.742a.35.35 0 0 0-.184.589l2.696 2.748a1.4 1.4 0 0 1 .352 1.347l-.912 3.36a.35.35 0 0 0 .483.41l3.623-1.645a1.4 1.4 0 0 1 1.243.042l6.81 3.975c1 .753 1.155.96.467.62l-1.23.47-1.575-.47-4.355-2.2-2.494.67-2.82 1.18-2.58 1.182-.897-4 .732-3.066v-.66l-3.005-3-2.1-2.824 3.26-.505 3.906-1.047 2.034-2.08 3.236-4.43 1.564 1.514-.368.59-.467-.59z"/></defs>
  </symbol>
</defs>

<use x="0" y="0" xlink:href="#pagos"/>
<use x="0" y="107" xlink:href="#pagos-verde"/>
<use x="0" y="214" xlink:href="#puntopromerica"/>
<use x="0" y="321" xlink:href="#puntopromerica-verde"/>

</svg>