<svg xmlns="http://www.w3.org/2000/svg" width="54" height="55" fill-rule="evenodd"><path d="M33.25 22.28c2 0 3.64 2.22 3.64 4.94s-1.63 4.94-3.64 4.94-3.64-2.22-3.64-4.94 1.63-4.94 3.64-4.94m0 12c3.17 0 5.75-3.16 5.75-7.05s-2.58-7.05-5.75-7.05-5.75 3.16-5.75 7.05 2.58 7.05 5.75 7.05" fill="#00693c"/><path d="M22.82 33H19.4c-.58 0-1.05.47-1.05 1.06s.47 1.06 1.05 1.06h3.43c.58 0 1.05-.47 1.05-1.06S23.4 33 22.82 33m20.4-10.72h3.43c.58 0 1.05-.47 1.05-1.06s-.47-1.06-1.05-1.06h-3.43c-.58 0-1.05.47-1.05 1.06s.47 1.06 1.05 1.06" fill="#69be28"/><path d="M51.17 38.2H14.94V16.78h36.23V38.2zM13.9 14.67c-.58 0-1.06.47-1.06 1.06v23.54c0 .58.47 1.06 1.06 1.06h38.33c.58 0 1.05-.47 1.05-1.06V15.72c0-.58-.47-1.06-1.05-1.06H13.9zm25.83 34.8c-3.8 2.23-8.17 3.4-12.6 3.4-13.8 0-25.02-11.24-25.02-25.06S13.33 2.77 27.13 2.77A24.9 24.9 0 0 1 42.2 7.84h-4.94c-.58 0-1.05.47-1.05 1.06s.47 1.05 1.05 1.05h7.83c.45 0 .83-.28.98-.68.01-.03.01-.06.02-.1.03-.1.06-.2.06-.28V1.06c0-.6-.48-1.06-1.05-1.06s-1.05.47-1.05 1.05V6.6C39.24 2.75 33.33.65 27.13.65A27.2 27.2 0 0 0 0 27.83 27.2 27.2 0 0 0 27.13 55a27.1 27.1 0 0 0 13.67-3.7c.5-.3.67-.94.38-1.44s-.94-.67-1.44-.38m6.2-5.14a25.2 25.2 0 0 1-2.72 2.67c-.45.38-.5 1.04-.13 1.5.2.25.5.38.8.38.24 0 .48-.08.68-.25a27.1 27.1 0 0 0 2.95-2.89c.38-.44.34-1.1-.1-1.5s-1.1-.34-1.5.1" fill="#00693c"/></svg>