<svg xmlns="http://www.w3.org/2000/svg" width="57" height="42" fill-rule="evenodd"><path fill="#dedede" d="M.826 9.06h9.087v32.118H.826z"/><g fill="#aeaeae"><path d="M53.026 6.91H38.83V4.483c0-2.46-2.048-4.46-4.564-4.46H22.733c-2.516 0-4.564 2.002-4.564 4.46V6.91H3.974C1.78 6.91 0 8.65 0 10.794v27.3c0 2.144 1.78 3.884 3.974 3.884h49.05c2.193 0 3.974-1.74 3.974-3.884v-27.3c0-2.144-1.78-3.884-3.974-3.884zM20.44 4.483c0-1.23 1.024-2.24 2.293-2.24h11.545c1.258 0 2.293 1 2.293 2.24V6.91H20.44V4.483zm34.29 33.61c0 .914-.768 1.665-1.703 1.665H3.974c-.935 0-1.703-.75-1.703-1.665V16.67l17.434 8.27c.356 2.11 2.227 3.72 4.487 3.72h8.628c2.25 0 4.13-1.6 4.487-3.72l10.888-5.158c.568-.272.802-.936.523-1.48a1.14 1.14 0 0 0-1.514-.511L37.05 22.6c-.668-1.643-2.304-2.818-4.23-2.818h-8.628c-1.915 0-3.562 1.164-4.23 2.818L2.27 14.2v-3.417c0-.914.768-1.665 1.703-1.665h49.05c.935 0 1.703.75 1.703 1.665v27.3zM21.91 24.22c0-1.22 1.024-2.22 2.27-2.22h8.628c1.247 0 2.27 1 2.27 2.22s-1.013 2.22-2.26 2.22h-8.628c-1.258 0-2.282-1-2.282-2.22z" fill-rule="nonzero"/><path d="M53.16 16.19a1.14 1.14 0 0 0-1.514-.511l-.7.326c-.568.272-.802.936-.523 1.48.2.392.6.63 1.024.63.167 0 .334-.033.5-.11l.7-.326c.557-.283.8-.947.523-1.49z"/></g></svg>