<svg xmlns="http://www.w3.org/2000/svg" xmlns:xlink="http://www.w3.org/1999/xlink" width="68" height="52"><g fill-rule="evenodd"><path d="M1.08 15.62l6.04 11.5 9.9-.46c2.13-.8 15.56-4.5 17.96-5.6l-21.86 3.2-12.05-8.65z" fill="#69be28"/><g fill="#00693c"><path d="M34.98 20.06a1.1 1.1 0 0 1 .64.2c.32.23.48.6.42.98l-2.96 19 2.3-1.1 11-24.04c.1-.23.3-.4.52-.52 13.84-6.3 16.97-8.03 17.6-8.5.03-.02.06-.04.1-.06.36-.22.8-.55.83-.93.03-.4-.33-.95-.95-1.45-1.9-1.56-5.84-1.5-10.56.18-4.54 1.6-40.42 17-40.8 17.17-.35.15-.75.1-1.07-.1l-8.17-5.57-1.37.72 5.27 10.03 8.97-.4c.98-.35 3.53-1.1 6.46-1.97l11.32-3.55c.14-.06.3-.1.45-.1M31.7 43.08a1.1 1.1 0 0 1-.63-.2c-.33-.23-.5-.6-.43-1l3-19.22c-2.37.8-6.26 1.95-9.8 3l-6.43 1.96c-.2.08-.45.17-10.24.53-.42.01-.8-.2-1-.57L.1 16.1c-.26-.5-.06-1.1.44-1.36l2.87-1.52c.36-.2.8-.17 1.15.06l8.22 5.6L53.15 1.9c3.26-1.16 9.24-2.67 12.7.18 1.18.96 1.78 2.1 1.7 3.17-.05.68-.4 1.66-1.78 2.5-.5.38-2.26 1.55-17.6 8.54l-11 24.03c-.1.22-.28.4-.5.5l-4.5 2.15c-.15.07-.32.1-.48.1m-7.12-30.33c-.18 0-.36-.04-.52-.13l-1.5-.8c-.52-.28-.7-.9-.42-1.4s.94-.68 1.46-.4l1.5.8c.52.28.7.9.42 1.4-.2.34-.56.53-.94.53"/><path d="M21.23 10.96c-.18 0-.36-.04-.52-.13L13.34 6.9c-.36-.2-.57-.56-.55-.95s.27-.74.65-.9l4.9-2.02c.23-.1.48-.1.72-.05l14.8 4.05c.57.16.9.73.74 1.27s-.76.86-1.33.7L18.83 5.08 16.3 6.13l5.46 2.9c.52.28.7.9.42 1.4-.2.34-.56.53-.94.53m37.5-5.1a1.1 1.1 0 0 1-1-.63c-.23-.52.02-1.13.57-1.35l5.84-2.37a1.1 1.1 0 0 1 1.41.55c.23.52-.02 1.13-.57 1.35l-5.84 2.37c-.14.06-.28.08-.42.08"/><use xlink:href="#B"/><path d="M34.43 15.76c-.42 0-.83-.24-1-.64-.22-.53.04-1.13.6-1.34l6.92-2.7c.55-.22 1.18.04 1.4.56s-.04 1.13-.6 1.34l-6.92 2.7c-.13.05-.27.08-.4.08"/><use xlink:href="#B" x="24.57" y="-9.6"/><path d="M3.65 32.13c-.4 0-.76-.2-.95-.55L.13 26.94c-.28-.5-.08-1.13.45-1.4a1.1 1.1 0 0 1 1.46.43l2.26 4.07 13.97-.5 11.63-3.42c.57-.17 1.17.14 1.35.68s-.15 1.12-.7 1.3L18.8 31.55a.9.9 0 0 1-.28.04l-14.83.52M42.7 51.9h-2.74c-.6 0-1.08-.46-1.08-1.03s.48-1.03 1.08-1.03h2.74c.6 0 1.08.46 1.08 1.03s-.48 1.03-1.08 1.03m-5.5 0H20.55c-.6 0-1.08-.46-1.08-1.03s.48-1.03 1.08-1.03H37.2c.6 0 1.08.46 1.08 1.03s-.48 1.03-1.08 1.03"/><path d="M8.7 49.86h24.33c-.23-1.4-.95-2.43-2.05-2.93-1.33-.6-2.97-.3-4.4.83-.32.25-.77.3-1.14.13s-.62-.53-.62-.93c0-1.67-.5-3.04-1.45-3.97-.8-.78-1.9-1.22-3.07-1.22-2 0-4.18 1.34-4.18 4.3 0 .36-.2.7-.52.88s-.72.2-1.06.03c-1.7-.85-3.25-1-4.25-.43-.9.52-1.43 1.65-1.58 3.32m25.5 2.06H7.6c-.6 0-1.08-.46-1.08-1.03 0-3.78 1.45-5.4 2.67-6.1 1.35-.78 3.07-.85 4.94-.22.67-3.18 3.44-4.84 6.18-4.84 1.76 0 3.4.65 4.6 1.83a6.8 6.8 0 0 1 1.9 3.63c1.7-.78 3.52-.84 5.1-.12 2.1.96 3.37 3.13 3.37 5.82 0 .57-.48 1.03-1.08 1.03"/><path d="M22.9 47.74c-.6 0-1.08-.46-1.08-1.03 0-1.24-.7-1.7-1.36-1.72-.6-.02-1.06-.5-1.04-1.06s.5-1.02 1.1-1C22.2 42.98 24 44.2 24 46.7c0 .57-.48 1.03-1.08 1.03"/></g></g><defs ><path id="B" d="M23.7 19.95c-.42 0-.83-.24-1-.64-.22-.53.04-1.13.6-1.34l3.8-1.5c.55-.22 1.18.04 1.4.56s-.04 1.13-.6 1.34l-3.8 1.5c-.13.05-.27.08-.4.08"/></defs></svg>