<svg xmlns="http://www.w3.org/2000/svg" xmlns:xlink="http://www.w3.org/1999/xlink" width="68" height="53"><g fill-rule="evenodd"><path d="M1.07 15.8l6 11.64 9.82-.46c2.12-.8 15.44-4.57 17.83-5.65l-21.7 3.23L1.07 15.8z" fill="#d8d8d8"/><g fill="#aeaeae"><path d="M34.7 20.28c.23 0 .45.07.64.2.3.23.48.6.42 1L32.83 40.7l2.28-1.1L46 15.28c.1-.23.3-.42.52-.52C60.26 8.38 63.37 6.63 64 6.15c.03-.02.06-.04.1-.06.36-.22.8-.56.82-.94.03-.4-.33-.96-.94-1.47-1.88-1.58-5.8-1.5-10.48.18C48.98 5.5 13.37 21.07 13 21.23c-.35.15-.75.1-1.06-.1l-8.1-5.63-1.36.73L7.7 26.37l8.9-.4c.97-.35 3.5-1.1 6.4-2 4.4-1.32 9.87-2.97 11.24-3.6a1.1 1.1 0 0 1 .45-.1m-3.24 23.3c-.22 0-.44-.07-.63-.2-.32-.23-.5-.6-.43-1l2.98-19.44c-2.35.8-6.22 1.97-9.73 3.03l-6.38 1.98c-.2.08-.44.17-10.17.53-.42.02-.8-.2-1-.57l-6-11.64c-.26-.5-.06-1.1.44-1.38l2.85-1.53c.36-.2.8-.17 1.14.06l8.16 5.66L52.74 1.9c3.23-1.17 9.17-2.7 12.6.2 1.17.97 1.77 2.1 1.7 3.2-.05.7-.4 1.68-1.77 2.53-.5.38-2.25 1.57-17.46 8.63l-10.9 24.3c-.1.22-.28.4-.5.5l-4.46 2.17c-.15.07-.3.1-.48.1m-7.1-30.65c-.18 0-.35-.04-.52-.13l-1.5-.8c-.52-.28-.7-.9-.4-1.42s.94-.68 1.45-.4l1.5.8c.52.28.7.9.42 1.42-.2.34-.56.54-.93.54"/><path d="M21.07 11.1c-.18 0-.35-.04-.52-.13L13.24 7c-.36-.2-.57-.57-.55-.96s.27-.75.64-.9L18.2 3.1a1.1 1.1 0 0 1 .72-.05l14.7 4.1c.57.16.9.73.73 1.3s-.75.87-1.32.72l-14.33-4-2.5 1.06 5.42 2.93c.52.28.7.9.42 1.42-.2.34-.56.54-.94.54m37.2-5.18c-.42 0-.8-.24-.98-.63-.23-.53.02-1.14.57-1.37l5.8-2.4c.54-.22 1.17.02 1.4.55s-.02 1.14-.57 1.37l-5.8 2.4c-.14.06-.28.08-.42.08"/><use xlink:href="#B"/><path d="M34.17 15.94c-.42 0-.82-.24-1-.65-.22-.53.04-1.14.6-1.36l6.86-2.73c.55-.22 1.17.04 1.4.57s-.04 1.14-.6 1.36l-6.86 2.73c-.13.05-.27.08-.4.08"/><use xlink:href="#B" x="24.37" y="-9.71"/><path d="M3.62 32.5c-.4 0-.76-.2-.94-.55l-2.56-4.7c-.28-.5-.08-1.14.44-1.4s1.17-.08 1.44.43l2.24 4.12 13.86-.5 11.54-3.45c.56-.17 1.16.14 1.34.7s-.14 1.13-.7 1.3l-11.67 3.5c-.1.03-.18.04-.27.05l-14.7.53M42.36 52.5h-2.72c-.6 0-1.07-.47-1.07-1.04s.48-1.04 1.07-1.04h2.72c.6 0 1.07.47 1.07 1.04s-.48 1.04-1.07 1.04m-5.43 0H20.4c-.6 0-1.07-.47-1.07-1.04s.48-1.04 1.07-1.04h16.54c.6 0 1.07.47 1.07 1.04s-.48 1.04-1.07 1.04"/><path d="M8.64 50.43h24.14c-.23-1.4-.95-2.46-2.04-2.97-1.32-.6-2.95-.3-4.38.84-.32.26-.76.3-1.13.14s-.6-.54-.6-.94a5.5 5.5 0 0 0-1.44-4.01c-.8-.8-1.88-1.23-3.04-1.23-2 0-4.15 1.36-4.15 4.34 0 .36-.2.7-.52.9a1.1 1.1 0 0 1-1.05.03c-1.7-.86-3.22-1.02-4.22-.44-.9.52-1.42 1.67-1.57 3.36m25.3 2.08H7.53c-.6 0-1.07-.47-1.07-1.04 0-3.82 1.44-5.47 2.65-6.18 1.34-.8 3.04-.86 4.9-.23a6.1 6.1 0 0 1 6.13-4.89c1.74 0 3.36.66 4.57 1.86.97.96 1.6 2.2 1.9 3.68 1.7-.8 3.5-.85 5.06-.12 2.1.97 3.34 3.17 3.34 5.9 0 .58-.48 1.04-1.07 1.04"/><path d="M22.74 48.3c-.6 0-1.07-.47-1.07-1.04 0-1.25-.7-1.72-1.35-1.74-.6-.02-1.05-.5-1.04-1.07s.5-1.03 1.1-1c1.65.05 3.42 1.27 3.42 3.82 0 .58-.48 1.04-1.07 1.04"/></g></g><defs ><path id="B" d="M23.53 20.18c-.42 0-.82-.24-1-.65-.22-.53.04-1.14.6-1.36l3.78-1.5c.55-.22 1.17.04 1.4.57s-.04 1.14-.6 1.36l-3.78 1.5c-.13.05-.27.08-.4.08"/></defs></svg>