<svg xmlns="http://www.w3.org/2000/svg" width="46" height="53" fill="none" fill-rule="evenodd"><path d="M27.235 40.955l.543.474 2.722.374 3.116 3.054-3.116 5.85-.738 1.127-5.43-10.88 2.632.362-1.15-.362h-5.68L14.138 52l-3.432-7.317-6.875.876 4.87-9.843-3.257-2.028V27.8l-4.56-6.61 4.56-6.1-.896-5.19.896-1.555 6.588-2.277 3.848-3.992.637-1.195h2.606l-4.4 10.415c-2.208 9.255.036 17.28 6.732 24.073l2.55 2.547 5.347 3.04h-2.118z" fill="#d8d8d8"/><ellipse stroke="#aeaeae" stroke-width="1.73" cx="22.343" cy="21.722" rx="13.8" ry="13.823"/><path d="M3.083 26.113c1.23 1.352 1.18 2.43 1.096 4.218l-.043 1.8c.053 3.183 2.4 3.713 4.286 4.138 1.605.362 3.12.704 4.03 2.28 1.556 2.745 2.88 4.937 5.942 3.96 1.04-.332 1.784-.646 2.382-.898.898-.38 1.393-.588 2.18-.588s1.28.21 2.18.588l2.383.898c1.455.463 2.635.21 3.636-.67.918-.807 1.635-2.127 2.306-3.292.9-1.576 2.425-1.918 4.03-2.28 1.886-.425 4.234-.955 4.286-4.138l-.043-1.8c-.084-1.787-.135-2.866 1.096-4.217 1.87-2.05 3.085-3.33 3.083-4.745.002-1.5-1.494-3-3.083-4.743-1.23-1.352-1.18-2.43-1.096-4.218l.043-1.8c-.052-3.183-2.4-3.712-4.285-4.138-1.605-.362-3.12-.704-4.03-2.28-.674-1.17-1.397-2.492-2.307-3.292-1.027-.902-2.216-1.12-3.635-.668-1.04.332-1.786.646-2.384.898-.898.378-1.393.587-2.177.587s-1.28-.21-2.18-.587L18.393.23c-1.42-.453-2.61-.234-3.635.668-.918.807-1.636 2.127-2.307 3.292-.91 1.575-2.484 1.918-4.152 2.28-1.952.424-4.38.953-4.433 4.138-.013.8.052 1.516.1 2.15.148 1.638.238 2.627-.893 3.87-1.84 2.02-3.088 3.324-3.083 4.74-.005 1.5 1.448 2.954 3.083 4.747zm1.33-8.292C6.07 16 5.92 14.347 5.762 12.596l-.103-1.96c.028-1.703.947-1.974 3.023-2.425 1.79-.4 4.02-.874 5.324-3.135 1.318-2.13 1.9-3.765 3.84-3.15.963.307 1.637.59 2.23.842.965.407 1.728.728 2.88.73s1.912-.322 2.877-.73l2.232-.842c1.925-.613 2.5.988 3.84 3.15 1.3 2.254 3.457 2.74 5.19 3.132 2.034.46 2.86.714 2.89 2.43l-.04 1.688c-.087 1.85-.17 3.6 1.558 5.498 1.323 1.452 2.62 2.82 2.62 3.544v.005c.002.782-1.547 2.37-2.62 3.546-1.728 1.897-1.645 3.645-1.558 5.497l.04 1.688c-.028 1.715-.855 1.97-2.89 2.43-1.732.39-3.888.877-5.19 3.132l-.12.2c-1.517 2.634-2.14 3.443-3.718 2.94-.963-.307-1.636-.59-2.23-.84-.966-.407-1.73-.73-2.88-.73s-1.914.322-2.88.73l-2.23.84c-1.92.612-2.494-.976-3.84-3.15-1.3-2.254-3.457-2.74-5.19-3.13-2.035-.46-2.862-.713-2.9-2.43l.042-1.687c.088-1.852.17-3.6-1.558-5.498-1.207-1.325-2.62-2.8-2.62-3.55-.003-.78 1.55-2.37 2.62-3.545z" fill="#aeaeae" fill-rule="nonzero"/><path d="M8.488 34.886L3.396 45.06a.25.25 0 0 0 .11.333c.043.02.1.03.138.025l6.716-.74a.62.62 0 0 1 .636.366l2.795 6.334a.25.25 0 0 0 .328.127c.05-.022.1-.06.117-.106l5.557-9.98m16.05-5.875l4.84 9.557c.062.122.013.272-.1.334-.043.022-.1.03-.14.025l-6.713-.74a.62.62 0 0 0-.636.366L30.3 51.42a.25.25 0 0 1-.328.127c-.05-.022-.1-.06-.117-.107L23.657 40.3" stroke="#aeaeae" stroke-width="1.73"/><g fill="#aeaeae"><rect x="20.479" y="12.173" width="1.99" height="14.332" rx=".995"/><ellipse cx="21.474" cy="29.455" rx="1" ry="1.265"/></g></svg>