<svg xmlns="http://www.w3.org/2000/svg" width="56" height="57" fill="none" fill-rule="evenodd"><path d="M35.077 46.37c-6.67 0-12.59-2.832-17.407-7.322-4.834-4.507-6.925-11.213-7.21-17.68-.206-4.687 1.563-9.875 4.27-14.004a24.56 24.56 0 0 0-9.402 19.387c0 13.513 10.785 24.468 24.1 24.468 7.222 0 13.698-3.234 18.114-8.348-3.788 2.224-8.193 3.498-12.457 3.498" fill="#d8d8d8"/><path d="M30.96 55.3c-.075-.586.332-1.122.9-1.198l2.55-.463c.567-.132 1.132.227 1.263.803a1.07 1.07 0 0 1-.79 1.282 28.41 28.41 0 0 1-2.751.5c-.045.006-.1.01-.136.01a1.06 1.06 0 0 1-1.043-.933zm-2.972 1.146C13.326 56.18 1.304 44.82.004 30.017c-.05-.588.376-1.108.956-1.16a1.06 1.06 0 0 1 1.142.97c1.204 13.7 12.34 24.235 25.904 24.48.58.01 1.044.498 1.034 1.088a1.06 1.06 0 0 1-1.053 1.05M53.2 26.183C53.2 39.06 42.913 49.5 30.3 49.5S7.4 38.992 7.4 26.183 17.7 2.925 30.3 2.925s22.9 10.38 22.9 23.258m2.46 0C55.66 12.026 44.308.428 30.3.428S4.942 12.02 4.942 26.246 16.294 52 30.3 52s25.36-11.6 25.36-25.817" fill="#aeaeae"/><path d="M27.888 22.425l-4.842.53a.56.56 0 0 0-.345.943l3.497 3.68a1.68 1.68 0 0 1 .417 1.547l-1.54 6.465-1.494.91.396-8.262-5.364-6.424c3.695-.236 6.222-.83 7.58-1.782s2.852-3.176 4.484-6.674l1.01 1.314-2.885 7.062a1.12 1.12 0 0 1-.915.69z" fill="#d8d8d8"/><path d="M30.55 33.742L23.27 37.7a.56.56 0 0 1-.819-.589l1.444-8.297a.56.56 0 0 0-.16-.496l-5.965-5.855a.56.56 0 0 1 .314-.955l8.188-1.165a.56.56 0 0 0 .427-.313l3.61-7.554a.56.56 0 0 1 1.011 0l3.61 7.554a.56.56 0 0 0 .427.313l8.188 1.165a.56.56 0 0 1 .314.955l-5.965 5.855a.56.56 0 0 0-.16.496L39.18 37.1a.56.56 0 0 1-.819.589l-7.278-3.948a.56.56 0 0 0-.534 0z" stroke="#aeaeae" stroke-width="2.241"/></svg>