<svg xmlns="http://www.w3.org/2000/svg" xmlns:xlink="http://www.w3.org/1999/xlink" width="140" height="542" fill="none" fill-rule="evenodd">

  <symbol id="puntos">
    <path d="M35.077 46.37c-6.67 0-12.59-2.832-17.407-7.322-4.834-4.507-6.925-11.213-7.21-17.68-.206-4.687 1.563-9.875 4.27-14.004a24.56 24.56 0 0 0-9.402 19.387c0 13.513 10.785 24.468 24.1 24.468 7.222 0 13.698-3.234 18.114-8.348-3.788 2.224-8.193 3.498-12.457 3.498" fill="#d8d8d8"/><path d="M30.96 55.3c-.075-.586.332-1.122.9-1.198l2.55-.463c.567-.132 1.132.227 1.263.803a1.07 1.07 0 0 1-.79 1.282 28.41 28.41 0 0 1-2.751.5c-.045.006-.1.01-.136.01a1.06 1.06 0 0 1-1.043-.933zm-2.972 1.146C13.326 56.18 1.304 44.82.004 30.017c-.05-.588.376-1.108.956-1.16a1.06 1.06 0 0 1 1.142.97c1.204 13.7 12.34 24.235 25.904 24.48.58.01 1.044.498 1.034 1.088a1.06 1.06 0 0 1-1.053 1.05M53.2 26.183C53.2 39.06 42.913 49.5 30.3 49.5S7.4 38.992 7.4 26.183 17.7 2.925 30.3 2.925s22.9 10.38 22.9 23.258m2.46 0C55.66 12.026 44.308.428 30.3.428S4.942 12.02 4.942 26.246 16.294 52 30.3 52s25.36-11.6 25.36-25.817" fill="#aeaeae"/><path d="M27.888 22.425l-4.842.53a.56.56 0 0 0-.345.943l3.497 3.68a1.68 1.68 0 0 1 .417 1.547l-1.54 6.465-1.494.91.396-8.262-5.364-6.424c3.695-.236 6.222-.83 7.58-1.782s2.852-3.176 4.484-6.674l1.01 1.314-2.885 7.062a1.12 1.12 0 0 1-.915.69z" fill="#d8d8d8"/><path d="M30.55 33.742L23.27 37.7a.56.56 0 0 1-.819-.589l1.444-8.297a.56.56 0 0 0-.16-.496l-5.965-5.855a.56.56 0 0 1 .314-.955l8.188-1.165a.56.56 0 0 0 .427-.313l3.61-7.554a.56.56 0 0 1 1.011 0l3.61 7.554a.56.56 0 0 0 .427.313l8.188 1.165a.56.56 0 0 1 .314.955l-5.965 5.855a.56.56 0 0 0-.16.496L39.18 37.1a.56.56 0 0 1-.819.589l-7.278-3.948a.56.56 0 0 0-.534 0z" stroke="#aeaeae" stroke-width="2.241"/>
  </symbol>
  <symbol id="puntos-hover">
    <path d="M35.077 46.37c-6.67 0-12.59-2.832-17.407-7.322-4.834-4.507-6.925-11.213-7.21-17.68-.206-4.687 1.563-9.875 4.27-14.004a24.56 24.56 0 0 0-9.402 19.387c0 13.513 10.785 24.468 24.1 24.468 7.222 0 13.698-3.234 18.114-8.348-3.788 2.224-8.193 3.498-12.457 3.498" fill="#69be28"/><path d="M32.004 56.223a1.06 1.06 0 0 1-1.043-.933c-.075-.586.332-1.122.9-1.198l2.55-.463c.567-.132 1.132.227 1.263.803a1.07 1.07 0 0 1-.79 1.282 28.41 28.41 0 0 1-2.751.5c-.045.006-.1.01-.136.01m-4.01.222C13.326 56.18 1.304 44.82.004 30.017c-.05-.588.376-1.108.956-1.16a1.06 1.06 0 0 1 1.142.97c1.204 13.7 12.34 24.235 25.904 24.48.58.01 1.044.498 1.034 1.088a1.06 1.06 0 0 1-1.053 1.05M53.2 26.183C53.2 39.06 42.913 49.5 30.3 49.5S7.4 38.992 7.4 26.183 17.7 2.925 30.3 2.925s22.9 10.38 22.9 23.258m2.46 0C55.66 12.026 44.308.428 30.3.428S4.942 12.02 4.942 26.246 16.294 52 30.3 52s25.36-11.6 25.36-25.817" fill="#00693c"/><path d="M27.888 22.425l-4.842.53a.56.56 0 0 0-.345.943l3.497 3.68a1.68 1.68 0 0 1 .417 1.547l-1.54 6.465-1.494.91.396-8.262-5.364-6.424c3.695-.236 6.222-.83 7.58-1.782s2.852-3.176 4.484-6.674l1.01 1.314-2.885 7.062a1.12 1.12 0 0 1-.915.69z" fill="#69be28"/><path d="M30.55 33.742L23.27 37.7a.56.56 0 0 1-.819-.589l1.444-8.297a.56.56 0 0 0-.16-.496l-5.965-5.855a.56.56 0 0 1 .314-.955l8.188-1.165a.56.56 0 0 0 .427-.313l3.61-7.554a.56.56 0 0 1 1.011 0l3.61 7.554a.56.56 0 0 0 .427.313l8.188 1.165a.56.56 0 0 1 .314.955l-5.965 5.855a.56.56 0 0 0-.16.496L39.18 37.1a.56.56 0 0 1-.819.589l-7.278-3.948a.56.56 0 0 0-.534 0z" stroke="#00693c" stroke-width="2.241"/>
  </symbol>
  <symbol id="cashback">
    <g fill="#d8d8d8"><path d="M13.93 16.13h8.8v22.73h-8.8z"/><ellipse stroke="#979797" stroke-width=".76" cx="33" cy="27.13" rx="4.4" ry="5.87"/></g><path d="M33.25 22.28c2 0 3.64 2.22 3.64 4.94s-1.63 4.94-3.64 4.94-3.64-2.22-3.64-4.94 1.63-4.94 3.64-4.94m0 12c3.17 0 5.75-3.16 5.75-7.05s-2.58-7.05-5.75-7.05-5.75 3.16-5.75 7.05 2.58 7.05 5.75 7.05M22.82 33H19.4c-.58 0-1.05.47-1.05 1.06s.47 1.06 1.05 1.06h3.43c.58 0 1.05-.47 1.05-1.06S23.4 33 22.82 33m20.4-10.72h3.43c.58 0 1.05-.47 1.05-1.06s-.47-1.06-1.05-1.06h-3.43c-.58 0-1.05.47-1.05 1.06s.47 1.06 1.05 1.06m7.95 15.92H14.94V16.78h36.23V38.2zM13.9 14.67c-.58 0-1.06.47-1.06 1.06v23.54c0 .58.47 1.06 1.06 1.06h38.33c.58 0 1.05-.47 1.05-1.06V15.72c0-.58-.47-1.06-1.05-1.06H13.9zm25.83 34.8c-3.8 2.23-8.17 3.4-12.6 3.4-13.8 0-25.02-11.24-25.02-25.06S13.33 2.77 27.13 2.77A24.9 24.9 0 0 1 42.2 7.84h-4.94c-.58 0-1.05.47-1.05 1.06s.47 1.05 1.05 1.05h7.83c.45 0 .83-.28.98-.68.01-.03.01-.06.02-.1.03-.1.06-.2.06-.28V1.06c0-.6-.48-1.06-1.05-1.06s-1.05.47-1.05 1.05V6.6C39.24 2.75 33.33.65 27.13.65A27.2 27.2 0 0 0 0 27.83 27.2 27.2 0 0 0 27.13 55a27.1 27.1 0 0 0 13.67-3.7c.5-.3.67-.94.38-1.44s-.94-.67-1.44-.38m6.2-5.14a25.2 25.2 0 0 1-2.72 2.67c-.45.38-.5 1.04-.13 1.5.2.25.5.38.8.38.24 0 .48-.08.68-.25a27.1 27.1 0 0 0 2.95-2.89c.38-.44.34-1.1-.1-1.5s-1.1-.34-1.5.1" stroke="none" fill="#aeaeae"/>
  </symbol>
  <symbol id="cashback-hover">
    <path d="M33.25 22.28c2 0 3.64 2.22 3.64 4.94s-1.63 4.94-3.64 4.94-3.64-2.22-3.64-4.94 1.63-4.94 3.64-4.94m0 12c3.17 0 5.75-3.16 5.75-7.05s-2.58-7.05-5.75-7.05-5.75 3.16-5.75 7.05 2.58 7.05 5.75 7.05" fill="#00693c"/><path d="M22.82 33H19.4c-.58 0-1.05.47-1.05 1.06s.47 1.06 1.05 1.06h3.43c.58 0 1.05-.47 1.05-1.06S23.4 33 22.82 33m20.4-10.72h3.43c.58 0 1.05-.47 1.05-1.06s-.47-1.06-1.05-1.06h-3.43c-.58 0-1.05.47-1.05 1.06s.47 1.06 1.05 1.06" fill="#69be28"/><path d="M51.17 38.2H14.94V16.78h36.23V38.2zM13.9 14.67c-.58 0-1.06.47-1.06 1.06v23.54c0 .58.47 1.06 1.06 1.06h38.33c.58 0 1.05-.47 1.05-1.06V15.72c0-.58-.47-1.06-1.05-1.06H13.9zm25.83 34.8c-3.8 2.23-8.17 3.4-12.6 3.4-13.8 0-25.02-11.24-25.02-25.06S13.33 2.77 27.13 2.77A24.9 24.9 0 0 1 42.2 7.84h-4.94c-.58 0-1.05.47-1.05 1.06s.47 1.05 1.05 1.05h7.83c.45 0 .83-.28.98-.68.01-.03.01-.06.02-.1.03-.1.06-.2.06-.28V1.06c0-.6-.48-1.06-1.05-1.06s-1.05.47-1.05 1.05V6.6C39.24 2.75 33.33.65 27.13.65A27.2 27.2 0 0 0 0 27.83 27.2 27.2 0 0 0 27.13 55a27.1 27.1 0 0 0 13.67-3.7c.5-.3.67-.94.38-1.44s-.94-.67-1.44-.38m6.2-5.14a25.2 25.2 0 0 1-2.72 2.67c-.45.38-.5 1.04-.13 1.5.2.25.5.38.8.38.24 0 .48-.08.68-.25a27.1 27.1 0 0 0 2.95-2.89c.38-.44.34-1.1-.1-1.5s-1.1-.34-1.5.1" fill="#00693c"/>
  </symbol>
  <symbol id="millas">
   <g fill-rule="evenodd"><path d="M1.07 15.8l6 11.64 9.82-.46c2.12-.8 15.44-4.57 17.83-5.65l-21.7 3.23L1.07 15.8z" fill="#d8d8d8"/><g fill="#aeaeae"><path d="M34.7 20.28c.23 0 .45.07.64.2.3.23.48.6.42 1L32.83 40.7l2.28-1.1L46 15.28c.1-.23.3-.42.52-.52C60.26 8.38 63.37 6.63 64 6.15c.03-.02.06-.04.1-.06.36-.22.8-.56.82-.94.03-.4-.33-.96-.94-1.47-1.88-1.58-5.8-1.5-10.48.18C48.98 5.5 13.37 21.07 13 21.23c-.35.15-.75.1-1.06-.1l-8.1-5.63-1.36.73L7.7 26.37l8.9-.4c.97-.35 3.5-1.1 6.4-2 4.4-1.32 9.87-2.97 11.24-3.6a1.1 1.1 0 0 1 .45-.1m-3.24 23.3c-.22 0-.44-.07-.63-.2-.32-.23-.5-.6-.43-1l2.98-19.44c-2.35.8-6.22 1.97-9.73 3.03l-6.38 1.98c-.2.08-.44.17-10.17.53-.42.02-.8-.2-1-.57l-6-11.64c-.26-.5-.06-1.1.44-1.38l2.85-1.53c.36-.2.8-.17 1.14.06l8.16 5.66L52.74 1.9c3.23-1.17 9.17-2.7 12.6.2 1.17.97 1.77 2.1 1.7 3.2-.05.7-.4 1.68-1.77 2.53-.5.38-2.25 1.57-17.46 8.63l-10.9 24.3c-.1.22-.28.4-.5.5l-4.46 2.17c-.15.07-.3.1-.48.1m-7.1-30.65c-.18 0-.35-.04-.52-.13l-1.5-.8c-.52-.28-.7-.9-.4-1.42s.94-.68 1.45-.4l1.5.8c.52.28.7.9.42 1.42-.2.34-.56.54-.93.54"/><path d="M21.07 11.1c-.18 0-.35-.04-.52-.13L13.24 7c-.36-.2-.57-.57-.55-.96s.27-.75.64-.9L18.2 3.1a1.1 1.1 0 0 1 .72-.05l14.7 4.1c.57.16.9.73.73 1.3s-.75.87-1.32.72l-14.33-4-2.5 1.06 5.42 2.93c.52.28.7.9.42 1.42-.2.34-.56.54-.94.54m37.2-5.18c-.42 0-.8-.24-.98-.63-.23-.53.02-1.14.57-1.37l5.8-2.4c.54-.22 1.17.02 1.4.55s-.02 1.14-.57 1.37l-5.8 2.4c-.14.06-.28.08-.42.08"/><use xlink:href="#B"/><path d="M34.17 15.94c-.42 0-.82-.24-1-.65-.22-.53.04-1.14.6-1.36l6.86-2.73c.55-.22 1.17.04 1.4.57s-.04 1.14-.6 1.36l-6.86 2.73c-.13.05-.27.08-.4.08"/><use xlink:href="#B" x="24.37" y="-9.71"/><path d="M3.62 32.5c-.4 0-.76-.2-.94-.55l-2.56-4.7c-.28-.5-.08-1.14.44-1.4s1.17-.08 1.44.43l2.24 4.12 13.86-.5 11.54-3.45c.56-.17 1.16.14 1.34.7s-.14 1.13-.7 1.3l-11.67 3.5c-.1.03-.18.04-.27.05l-14.7.53M42.36 52.5h-2.72c-.6 0-1.07-.47-1.07-1.04s.48-1.04 1.07-1.04h2.72c.6 0 1.07.47 1.07 1.04s-.48 1.04-1.07 1.04m-5.43 0H20.4c-.6 0-1.07-.47-1.07-1.04s.48-1.04 1.07-1.04h16.54c.6 0 1.07.47 1.07 1.04s-.48 1.04-1.07 1.04"/><path d="M8.64 50.43h24.14c-.23-1.4-.95-2.46-2.04-2.97-1.32-.6-2.95-.3-4.38.84-.32.26-.76.3-1.13.14s-.6-.54-.6-.94a5.5 5.5 0 0 0-1.44-4.01c-.8-.8-1.88-1.23-3.04-1.23-2 0-4.15 1.36-4.15 4.34 0 .36-.2.7-.52.9a1.1 1.1 0 0 1-1.05.03c-1.7-.86-3.22-1.02-4.22-.44-.9.52-1.42 1.67-1.57 3.36m25.3 2.08H7.53c-.6 0-1.07-.47-1.07-1.04 0-3.82 1.44-5.47 2.65-6.18 1.34-.8 3.04-.86 4.9-.23a6.1 6.1 0 0 1 6.13-4.89c1.74 0 3.36.66 4.57 1.86.97.96 1.6 2.2 1.9 3.68 1.7-.8 3.5-.85 5.06-.12 2.1.97 3.34 3.17 3.34 5.9 0 .58-.48 1.04-1.07 1.04"/><path d="M22.74 48.3c-.6 0-1.07-.47-1.07-1.04 0-1.25-.7-1.72-1.35-1.74-.6-.02-1.05-.5-1.04-1.07s.5-1.03 1.1-1c1.65.05 3.42 1.27 3.42 3.82 0 .58-.48 1.04-1.07 1.04"/></g></g><defs ><path id="B" d="M23.53 20.18c-.42 0-.82-.24-1-.65-.22-.53.04-1.14.6-1.36l3.78-1.5c.55-.22 1.17.04 1.4.57s-.04 1.14-.6 1.36l-3.78 1.5c-.13.05-.27.08-.4.08"/></defs>
  </symbol>
  <symbol id="millas-hover">
    <g fill-rule="evenodd"><path d="M1.08 15.62l6.04 11.5 9.9-.46c2.13-.8 15.56-4.5 17.96-5.6l-21.86 3.2-12.05-8.65z" fill="#69be28"/><g fill="#00693c"><path d="M34.98 20.06a1.1 1.1 0 0 1 .64.2c.32.23.48.6.42.98l-2.96 19 2.3-1.1 11-24.04c.1-.23.3-.4.52-.52 13.84-6.3 16.97-8.03 17.6-8.5.03-.02.06-.04.1-.06.36-.22.8-.55.83-.93.03-.4-.33-.95-.95-1.45-1.9-1.56-5.84-1.5-10.56.18-4.54 1.6-40.42 17-40.8 17.17-.35.15-.75.1-1.07-.1l-8.17-5.57-1.37.72 5.27 10.03 8.97-.4c.98-.35 3.53-1.1 6.46-1.97l11.32-3.55c.14-.06.3-.1.45-.1M31.7 43.08a1.1 1.1 0 0 1-.63-.2c-.33-.23-.5-.6-.43-1l3-19.22c-2.37.8-6.26 1.95-9.8 3l-6.43 1.96c-.2.08-.45.17-10.24.53-.42.01-.8-.2-1-.57L.1 16.1c-.26-.5-.06-1.1.44-1.36l2.87-1.52c.36-.2.8-.17 1.15.06l8.22 5.6L53.15 1.9c3.26-1.16 9.24-2.67 12.7.18 1.18.96 1.78 2.1 1.7 3.17-.05.68-.4 1.66-1.78 2.5-.5.38-2.26 1.55-17.6 8.54l-11 24.03c-.1.22-.28.4-.5.5l-4.5 2.15c-.15.07-.32.1-.48.1m-7.12-30.33c-.18 0-.36-.04-.52-.13l-1.5-.8c-.52-.28-.7-.9-.42-1.4s.94-.68 1.46-.4l1.5.8c.52.28.7.9.42 1.4-.2.34-.56.53-.94.53"/><path d="M21.23 10.96c-.18 0-.36-.04-.52-.13L13.34 6.9c-.36-.2-.57-.56-.55-.95s.27-.74.65-.9l4.9-2.02c.23-.1.48-.1.72-.05l14.8 4.05c.57.16.9.73.74 1.27s-.76.86-1.33.7L18.83 5.08 16.3 6.13l5.46 2.9c.52.28.7.9.42 1.4-.2.34-.56.53-.94.53m37.5-5.1a1.1 1.1 0 0 1-1-.63c-.23-.52.02-1.13.57-1.35l5.84-2.37a1.1 1.1 0 0 1 1.41.55c.23.52-.02 1.13-.57 1.35l-5.84 2.37c-.14.06-.28.08-.42.08"/><use xlink:href="#B"/><path d="M34.43 15.76c-.42 0-.83-.24-1-.64-.22-.53.04-1.13.6-1.34l6.92-2.7c.55-.22 1.18.04 1.4.56s-.04 1.13-.6 1.34l-6.92 2.7c-.13.05-.27.08-.4.08"/><use xlink:href="#B" x="24.57" y="-9.6"/><path d="M3.65 32.13c-.4 0-.76-.2-.95-.55L.13 26.94c-.28-.5-.08-1.13.45-1.4a1.1 1.1 0 0 1 1.46.43l2.26 4.07 13.97-.5 11.63-3.42c.57-.17 1.17.14 1.35.68s-.15 1.12-.7 1.3L18.8 31.55a.9.9 0 0 1-.28.04l-14.83.52M42.7 51.9h-2.74c-.6 0-1.08-.46-1.08-1.03s.48-1.03 1.08-1.03h2.74c.6 0 1.08.46 1.08 1.03s-.48 1.03-1.08 1.03m-5.5 0H20.55c-.6 0-1.08-.46-1.08-1.03s.48-1.03 1.08-1.03H37.2c.6 0 1.08.46 1.08 1.03s-.48 1.03-1.08 1.03"/><path d="M8.7 49.86h24.33c-.23-1.4-.95-2.43-2.05-2.93-1.33-.6-2.97-.3-4.4.83-.32.25-.77.3-1.14.13s-.62-.53-.62-.93c0-1.67-.5-3.04-1.45-3.97-.8-.78-1.9-1.22-3.07-1.22-2 0-4.18 1.34-4.18 4.3 0 .36-.2.7-.52.88s-.72.2-1.06.03c-1.7-.85-3.25-1-4.25-.43-.9.52-1.43 1.65-1.58 3.32m25.5 2.06H7.6c-.6 0-1.08-.46-1.08-1.03 0-3.78 1.45-5.4 2.67-6.1 1.35-.78 3.07-.85 4.94-.22.67-3.18 3.44-4.84 6.18-4.84 1.76 0 3.4.65 4.6 1.83a6.8 6.8 0 0 1 1.9 3.63c1.7-.78 3.52-.84 5.1-.12 2.1.96 3.37 3.13 3.37 5.82 0 .57-.48 1.03-1.08 1.03"/><path d="M22.9 47.74c-.6 0-1.08-.46-1.08-1.03 0-1.24-.7-1.7-1.36-1.72-.6-.02-1.06-.5-1.04-1.06s.5-1.02 1.1-1C22.2 42.98 24 44.2 24 46.7c0 .57-.48 1.03-1.08 1.03"/></g></g><defs ><path id="B" d="M23.7 19.95c-.42 0-.83-.24-1-.64-.22-.53.04-1.13.6-1.34l3.8-1.5c.55-.22 1.18.04 1.4.56s-.04 1.13-.6 1.34l-3.8 1.5c-.13.05-.27.08-.4.08"/></defs>
  </symbol>
  <symbol id="empresa">
    <path fill="#dedede" d="M.826 9.06h9.087v32.118H.826z"/><g fill="#aeaeae"><path d="M53.026 6.91H38.83V4.483c0-2.46-2.048-4.46-4.564-4.46H22.733c-2.516 0-4.564 2.002-4.564 4.46V6.91H3.974C1.78 6.91 0 8.65 0 10.794v27.3c0 2.144 1.78 3.884 3.974 3.884h49.05c2.193 0 3.974-1.74 3.974-3.884v-27.3c0-2.144-1.78-3.884-3.974-3.884zM20.44 4.483c0-1.23 1.024-2.24 2.293-2.24h11.545c1.258 0 2.293 1 2.293 2.24V6.91H20.44V4.483zm34.29 33.61c0 .914-.768 1.665-1.703 1.665H3.974c-.935 0-1.703-.75-1.703-1.665V16.67l17.434 8.27c.356 2.11 2.227 3.72 4.487 3.72h8.628c2.25 0 4.13-1.6 4.487-3.72l10.888-5.158c.568-.272.802-.936.523-1.48a1.14 1.14 0 0 0-1.514-.511L37.05 22.6c-.668-1.643-2.304-2.818-4.23-2.818h-8.628c-1.915 0-3.562 1.164-4.23 2.818L2.27 14.2v-3.417c0-.914.768-1.665 1.703-1.665h49.05c.935 0 1.703.75 1.703 1.665v27.3zM21.91 24.22c0-1.22 1.024-2.22 2.27-2.22h8.628c1.247 0 2.27 1 2.27 2.22s-1.013 2.22-2.26 2.22h-8.628c-1.258 0-2.282-1-2.282-2.22z" fill-rule="nonzero"/><path d="M53.16 16.19a1.14 1.14 0 0 0-1.514-.511l-.7.326c-.568.272-.802.936-.523 1.48.2.392.6.63 1.024.63.167 0 .334-.033.5-.11l.7-.326c.557-.283.8-.947.523-1.49z"/></g>
  </symbol>
  <symbol id="empresa-hover">
    <path fill="#69be28" d="M.826 9.06h9.087v32.118H.826z"/><g fill="#00693c"><path d="M53.026 6.91H38.83V4.483c0-2.46-2.048-4.46-4.564-4.46H22.733c-2.516 0-4.564 2.002-4.564 4.46V6.91H3.974C1.78 6.91 0 8.65 0 10.794v27.3c0 2.144 1.78 3.884 3.974 3.884h49.05c2.193 0 3.974-1.74 3.974-3.884v-27.3c0-2.144-1.78-3.884-3.974-3.884zM20.44 4.483c0-1.23 1.024-2.24 2.293-2.24h11.545c1.258 0 2.293 1 2.293 2.24V6.91H20.44V4.483zm34.29 33.61c0 .914-.768 1.665-1.703 1.665H3.974c-.935 0-1.703-.75-1.703-1.665V16.67l17.434 8.27c.356 2.11 2.227 3.72 4.487 3.72h8.628c2.25 0 4.13-1.6 4.487-3.72l10.888-5.158c.568-.272.802-.936.523-1.48a1.14 1.14 0 0 0-1.514-.511L37.05 22.6c-.668-1.643-2.304-2.818-4.23-2.818h-8.628c-1.915 0-3.562 1.164-4.23 2.818L2.27 14.2v-3.417c0-.914.768-1.665 1.703-1.665h49.05c.935 0 1.703.75 1.703 1.665v27.3zM21.91 24.22c0-1.22 1.024-2.22 2.27-2.22h8.628c1.247 0 2.27 1 2.27 2.22s-1.013 2.22-2.26 2.22h-8.628c-1.258 0-2.282-1-2.282-2.22z" fill-rule="nonzero"/><path d="M53.16 16.19a1.14 1.14 0 0 0-1.514-.511l-.7.326c-.568.272-.802.936-.523 1.48.2.392.6.63 1.024.63.167 0 .334-.033.5-.11l.7-.326c.557-.283.8-.947.523-1.49z"/></g>
  </symbol>
  <symbol id="promociones">
    <path d="M27.235 40.955l.543.474 2.722.374 3.116 3.054-3.116 5.85-.738 1.127-5.43-10.88 2.632.362-1.15-.362h-5.68L14.138 52l-3.432-7.317-6.875.876 4.87-9.843-3.257-2.028V27.8l-4.56-6.61 4.56-6.1-.896-5.19.896-1.555 6.588-2.277 3.848-3.992.637-1.195h2.606l-4.4 10.415c-2.208 9.255.036 17.28 6.732 24.073l2.55 2.547 5.347 3.04h-2.118z" fill="#d8d8d8"/><ellipse stroke="#aeaeae" stroke-width="1.73" cx="22.343" cy="21.722" rx="13.8" ry="13.823"/><path d="M3.083 26.113c1.23 1.352 1.18 2.43 1.096 4.218l-.043 1.8c.053 3.183 2.4 3.713 4.286 4.138 1.605.362 3.12.704 4.03 2.28 1.556 2.745 2.88 4.937 5.942 3.96 1.04-.332 1.784-.646 2.382-.898.898-.38 1.393-.588 2.18-.588s1.28.21 2.18.588l2.383.898c1.455.463 2.635.21 3.636-.67.918-.807 1.635-2.127 2.306-3.292.9-1.576 2.425-1.918 4.03-2.28 1.886-.425 4.234-.955 4.286-4.138l-.043-1.8c-.084-1.787-.135-2.866 1.096-4.217 1.87-2.05 3.085-3.33 3.083-4.745.002-1.5-1.494-3-3.083-4.743-1.23-1.352-1.18-2.43-1.096-4.218l.043-1.8c-.052-3.183-2.4-3.712-4.285-4.138-1.605-.362-3.12-.704-4.03-2.28-.674-1.17-1.397-2.492-2.307-3.292-1.027-.902-2.216-1.12-3.635-.668-1.04.332-1.786.646-2.384.898-.898.378-1.393.587-2.177.587s-1.28-.21-2.18-.587L18.393.23c-1.42-.453-2.61-.234-3.635.668-.918.807-1.636 2.127-2.307 3.292-.91 1.575-2.484 1.918-4.152 2.28-1.952.424-4.38.953-4.433 4.138-.013.8.052 1.516.1 2.15.148 1.638.238 2.627-.893 3.87-1.84 2.02-3.088 3.324-3.083 4.74-.005 1.5 1.448 2.954 3.083 4.747zm1.33-8.292C6.07 16 5.92 14.347 5.762 12.596l-.103-1.96c.028-1.703.947-1.974 3.023-2.425 1.79-.4 4.02-.874 5.324-3.135 1.318-2.13 1.9-3.765 3.84-3.15.963.307 1.637.59 2.23.842.965.407 1.728.728 2.88.73s1.912-.322 2.877-.73l2.232-.842c1.925-.613 2.5.988 3.84 3.15 1.3 2.254 3.457 2.74 5.19 3.132 2.034.46 2.86.714 2.89 2.43l-.04 1.688c-.087 1.85-.17 3.6 1.558 5.498 1.323 1.452 2.62 2.82 2.62 3.544v.005c.002.782-1.547 2.37-2.62 3.546-1.728 1.897-1.645 3.645-1.558 5.497l.04 1.688c-.028 1.715-.855 1.97-2.89 2.43-1.732.39-3.888.877-5.19 3.132l-.12.2c-1.517 2.634-2.14 3.443-3.718 2.94-.963-.307-1.636-.59-2.23-.84-.966-.407-1.73-.73-2.88-.73s-1.914.322-2.88.73l-2.23.84c-1.92.612-2.494-.976-3.84-3.15-1.3-2.254-3.457-2.74-5.19-3.13-2.035-.46-2.862-.713-2.9-2.43l.042-1.687c.088-1.852.17-3.6-1.558-5.498-1.207-1.325-2.62-2.8-2.62-3.55-.003-.78 1.55-2.37 2.62-3.545z" fill="#aeaeae" fill-rule="nonzero"/><path d="M8.488 34.886L3.396 45.06a.25.25 0 0 0 .11.333c.043.02.1.03.138.025l6.716-.74a.62.62 0 0 1 .636.366l2.795 6.334a.25.25 0 0 0 .328.127c.05-.022.1-.06.117-.106l5.557-9.98m16.05-5.875l4.84 9.557c.062.122.013.272-.1.334-.043.022-.1.03-.14.025l-6.713-.74a.62.62 0 0 0-.636.366L30.3 51.42a.25.25 0 0 1-.328.127c-.05-.022-.1-.06-.117-.107L23.657 40.3" stroke="#aeaeae" stroke-width="1.73"/><g fill="#aeaeae"><rect x="20.479" y="12.173" width="1.99" height="14.332" rx=".995"/><ellipse cx="21.474" cy="29.455" rx="1" ry="1.265"/></g>
  </symbol>
  <symbol id="promociones-hover">
    <path d="M27.235 40.955l.543.474 2.722.374 3.116 3.054-3.116 5.85-.738 1.127-5.43-10.88 2.632.362-1.15-.362h-5.68L14.138 52l-3.432-7.317-6.875.876 4.87-9.843-3.257-2.028V27.8l-4.56-6.61 4.56-6.1-.896-5.19.896-1.555 6.588-2.277 3.848-3.992.637-1.195h2.606l-4.4 10.415c-2.208 9.255.036 17.28 6.732 24.073l2.55 2.547 5.347 3.04h-2.118z" fill="#69be28"/><ellipse stroke="#00693c" stroke-width="1.73" cx="22.343" cy="21.722" rx="13.8" ry="13.823"/><path d="M3.083 26.113c1.23 1.352 1.18 2.43 1.096 4.218l-.043 1.8c.053 3.183 2.4 3.713 4.286 4.138 1.605.362 3.12.704 4.03 2.28 1.556 2.745 2.88 4.937 5.942 3.96 1.04-.332 1.784-.646 2.382-.898.898-.38 1.393-.588 2.18-.588s1.28.21 2.18.588l2.383.898c1.455.463 2.635.21 3.636-.67.918-.807 1.635-2.127 2.306-3.292.9-1.576 2.425-1.918 4.03-2.28 1.886-.425 4.234-.955 4.286-4.138l-.043-1.8c-.084-1.787-.135-2.866 1.096-4.217 1.87-2.05 3.085-3.33 3.083-4.745.002-1.5-1.494-3-3.083-4.743-1.23-1.352-1.18-2.43-1.096-4.218l.043-1.8c-.052-3.183-2.4-3.712-4.285-4.138-1.605-.362-3.12-.704-4.03-2.28-.674-1.17-1.397-2.492-2.307-3.292-1.027-.902-2.216-1.12-3.635-.668-1.04.332-1.786.646-2.384.898-.898.378-1.393.587-2.177.587s-1.28-.21-2.18-.587L18.393.23c-1.42-.453-2.61-.234-3.635.668-.918.807-1.636 2.127-2.307 3.292-.91 1.575-2.484 1.918-4.152 2.28-1.952.424-4.38.953-4.433 4.138-.013.8.052 1.516.1 2.15.148 1.638.238 2.627-.893 3.87-1.84 2.02-3.088 3.324-3.083 4.74-.005 1.5 1.448 2.954 3.083 4.747zm1.33-8.292C6.07 16 5.92 14.347 5.762 12.596l-.103-1.96c.028-1.703.947-1.974 3.023-2.425 1.79-.4 4.02-.874 5.324-3.135 1.318-2.13 1.9-3.765 3.84-3.15.963.307 1.637.59 2.23.842.965.407 1.728.728 2.88.73s1.912-.322 2.877-.73l2.232-.842c1.925-.613 2.5.988 3.84 3.15 1.3 2.254 3.457 2.74 5.19 3.132 2.034.46 2.86.714 2.89 2.43l-.04 1.688c-.087 1.85-.17 3.6 1.558 5.498 1.323 1.452 2.62 2.82 2.62 3.544v.005c.002.782-1.547 2.37-2.62 3.546-1.728 1.897-1.645 3.645-1.558 5.497l.04 1.688c-.028 1.715-.855 1.97-2.89 2.43-1.732.39-3.888.877-5.19 3.132l-.12.2c-1.517 2.634-2.14 3.443-3.718 2.94-.963-.307-1.636-.59-2.23-.84-.966-.407-1.73-.73-2.88-.73s-1.914.322-2.88.73l-2.23.84c-1.92.612-2.494-.976-3.84-3.15-1.3-2.254-3.457-2.74-5.19-3.13-2.035-.46-2.862-.713-2.9-2.43l.042-1.687c.088-1.852.17-3.6-1.558-5.498-1.207-1.325-2.62-2.8-2.62-3.55-.003-.78 1.55-2.37 2.62-3.545z" fill="#00693c" fill-rule="nonzero"/><path d="M8.488 34.886L3.396 45.06a.25.25 0 0 0 .11.333c.043.02.1.03.138.025l6.716-.74a.62.62 0 0 1 .636.366l2.795 6.334a.25.25 0 0 0 .328.127c.05-.022.1-.06.117-.106l5.557-9.98m16.05-5.875l4.84 9.557c.062.122.013.272-.1.334-.043.022-.1.03-.14.025l-6.713-.74a.62.62 0 0 0-.636.366L30.3 51.42a.25.25 0 0 1-.328.127c-.05-.022-.1-.06-.117-.107L23.657 40.3" stroke="#00693c" stroke-width="1.73"/><g fill="#00693c"><rect x="20.479" y="12.173" width="1.99" height="14.332" rx=".995"/><ellipse cx="21.474" cy="29.455" rx="1" ry="1.265"/></g>
  </symbol>
  <symbol id="todas">
    <path d="M7.467 7.02c0-3.246 2.627-5.877 5.868-5.877H49.82c3.24 0 5.868 2.63 5.868 5.877v21.972c0 3.246-2.627 5.877-5.868 5.877h-1.315l-41.04-.06V7.02z" stroke="#aeaeae" stroke-width="2.14"/><path fill="#fafafa" d="M11.284 32.9h2v4h-2z"/><rect stroke="#aeaeae" stroke-width="2.14" fill="#fff" x="1.354" y="9.971" width="46.081" height="31.586" rx="5.91"/><path d="M11.42 10.83h-5.3c-2.448 0-4.432 1.984-4.432 4.432V36.17c0 2.448 1.984 4.432 4.432 4.432h5.3V10.83z" fill="#d8d8d8"/><g stroke="#aeaeae" stroke-width="1.773"><rect fill="#fafafa" x="5.067" y="21.518" width="9.917" height="8.003" rx="1.97"/><path d="M5.658 24.94a.59.59 0 0 0-.591.591v1.926c0 .87.706 1.576 1.576 1.576h3.854a.59.59 0 0 0 .591-.591v-2.91a.59.59 0 0 0-.591-.591h-4.84z"/></g><g fill="#aeaeae"><rect width="10.076" height="1.955" rx=".978" transform="matrix(-1 0 0 1 42.6201 37.574149)"/><path d="M6.958 12.475c-.603 0-1.1.438-1.1.978s.488.978 1.1.978h10.425c.603 0 1.1-.438 1.1-.978s-.488-.978-1.1-.978H6.958zm16.097 0H20.34c-.46 0-.834.438-.834.978s.373.978.834.978h2.715c.46 0 .834-.438.834-.978s-.373-.978-.834-.978m-9.83-8.67c-.603 0-1.1.438-1.1.978s.488.978 1.1.978H23.65c.603 0 1.1-.438 1.1-.978s-.488-.978-1.1-.978H13.224zm16.096 0h-2.715c-.46 0-.834.438-.834.978s.373.978.834.978h2.715c.46 0 .834-.438.834-.978s-.373-.978-.834-.978"/></g>
  </symbol>
  <symbol id="todas-hover">
    <g stroke="#00693c" stroke-width="2.14"><path d="M7.467 7.02c0-3.246 2.627-5.877 5.868-5.877H49.82c3.24 0 5.868 2.63 5.868 5.877v21.972c0 3.246-2.627 5.877-5.868 5.877h-1.315l-41.04-.06V7.02z"/><rect fill="#fff" x="1.354" y="9.971" width="46.081" height="31.586" rx="5.91"/></g><path d="M11.42 10.83h-5.3c-2.448 0-4.432 1.984-4.432 4.432V36.17c0 2.448 1.984 4.432 4.432 4.432h5.3V10.83z" fill="#69be28"/><g stroke="#00693c" stroke-width="1.773"><rect fill="#fafafa" x="5.067" y="21.518" width="9.917" height="8.003" rx="1.97"/><path d="M5.658 24.94a.59.59 0 0 0-.591.591v1.926c0 .87.706 1.576 1.576 1.576h3.854a.59.59 0 0 0 .591-.591v-2.91a.59.59 0 0 0-.591-.591h-4.84z"/></g><g fill="#00693c"><rect width="10.076" height="1.955" rx=".978" transform="matrix(-1 0 0 1 42.6201 37.574149)"/><path d="M6.958 12.475c-.603 0-1.1.438-1.1.978s.488.978 1.1.978h10.425c.603 0 1.1-.438 1.1-.978s-.488-.978-1.1-.978H6.958zm16.097 0H20.34c-.46 0-.834.438-.834.978s.373.978.834.978h2.715c.46 0 .834-.438.834-.978s-.373-.978-.834-.978m-9.83-8.67c-.603 0-1.1.438-1.1.978s.488.978 1.1.978H23.65c.603 0 1.1-.438 1.1-.978s-.488-.978-1.1-.978H13.224zm16.096 0h-2.715c-.46 0-.834.438-.834.978s.373.978.834.978h2.715c.46 0 .834-.438.834-.978s-.373-.978-.834-.978"/></g>
  </symbol>
  <symbol id="cerrar">
    <g stroke="#00693c" stroke-width="2.5" stroke-linejoin="round"><path d="M7.958 3.712h-9.1 9.1z" transform="matrix(.669131 .743145 .743145 -.669131 7.370555 11.659793)"/><path d="M7.958 3.712h-9.1 9.1z" transform="matrix(.669131 -.743145 -.743145 -.669131 12.887747 16.732023)"/></g><circle cx="12" cy="12" r="10" stroke="#00693c" stroke-width="2.5"/>
  </symbol>
  <symbol id="flecha">
    <path d="M2.625 2.113l9.122 9.372 9.628-9.372" stroke="#69be28" stroke-width="3.552" fill="none" stroke-linecap="round" stroke-linejoin="round"/>
  </symbol>
  <symbol id="flecha-atras">
    <g stroke="#00693c" stroke-width="2.5"><path d="M8 12h8" stroke-linecap="round"/><g stroke-linejoin="round"><path d="M4.666 5.747h-4.1 4.1z" transform="matrix(.669131 .743145 .743145 -.669131 3.596338 15.644751)"/><path d="M4.666 1.747h-4.1 4.1z" transform="matrix(.669131 -.743145 -.743145 -.669131 9.165275 12.863287)"/></g></g><circle cx="12" cy="12" r="10" stroke="#00693c" stroke-width="2.5"/>
  </symbol>
  <symbol id="vermas">
    <g stroke-width="2.5" stroke="#69be28"><path d="M11.545 9v6.907" stroke-linecap="round"/><path d="M15.1 12.453H8h7.1z" stroke-linejoin="round"/></g><circle cx="12" cy="12" r="10" stroke="#69be28" stroke-width="2.5"/>
  </symbol>
  <symbol id="vermas-grande">
    <g stroke="#69be28" stroke-linecap="round" stroke-width="2.5"><path d="M14.77 9.222v11.093"/><path d="M20.315 14.77H9.222"/></g><circle cx="15" cy="15" r="13" stroke="#69be28" stroke-width="2.5"/>
  </symbol>

  <use x="0" y="0" xlink:href="#puntos"/>
  <use x="70" y="0" xlink:href="#puntos-hover"/>

  <use x="0" y="70" xlink:href="#cashback"/>
  <use x="70" y="70" xlink:href="#cashback-hover"/>

  <use x="0" y="140" xlink:href="#millas"/>
  <use x="70" y="140" xlink:href="#millas-hover"/>

  <use x="0" y="210" xlink:href="#empresa"/>
  <use x="70" y="210" xlink:href="#empresa-hover"/>

  <use x="0" y="280" xlink:href="#promociones"/>
  <use x="70" y="280" xlink:href="#promociones-hover"/>

  <use x="0" y="350" xlink:href="#todas"/>
  <use x="70" y="350" xlink:href="#todas-hover"/>

  <use x="0" y="420" xlink:href="#cerrar"/>
  <use x="0" y="444" xlink:href="#flecha"/>
  <use x="0" y="458" xlink:href="#flecha-atras"/>
  <use x="0" y="482" xlink:href="#vermas"/>
  <use x="0" y="512" xlink:href="#vermas-grande"/>

</svg>