<svg xmlns="http://www.w3.org/2000/svg" width="57" height="43" fill="none" fill-rule="evenodd"><g stroke="#00693c" stroke-width="2.14"><path d="M7.467 7.02c0-3.246 2.627-5.877 5.868-5.877H49.82c3.24 0 5.868 2.63 5.868 5.877v21.972c0 3.246-2.627 5.877-5.868 5.877h-1.315l-41.04-.06V7.02z"/><rect fill="#fff" x="1.354" y="9.971" width="46.081" height="31.586" rx="5.91"/></g><path d="M11.42 10.83h-5.3c-2.448 0-4.432 1.984-4.432 4.432V36.17c0 2.448 1.984 4.432 4.432 4.432h5.3V10.83z" fill="#69be28"/><g stroke="#00693c" stroke-width="1.773"><rect fill="#fafafa" x="5.067" y="21.518" width="9.917" height="8.003" rx="1.97"/><path d="M5.658 24.94a.59.59 0 0 0-.591.591v1.926c0 .87.706 1.576 1.576 1.576h3.854a.59.59 0 0 0 .591-.591v-2.91a.59.59 0 0 0-.591-.591h-4.84z"/></g><g fill="#00693c"><rect width="10.076" height="1.955" rx=".978" transform="matrix(-1 0 0 1 42.6201 37.574149)"/><path d="M6.958 12.475c-.603 0-1.1.438-1.1.978s.488.978 1.1.978h10.425c.603 0 1.1-.438 1.1-.978s-.488-.978-1.1-.978H6.958zm16.097 0H20.34c-.46 0-.834.438-.834.978s.373.978.834.978h2.715c.46 0 .834-.438.834-.978s-.373-.978-.834-.978m-9.83-8.67c-.603 0-1.1.438-1.1.978s.488.978 1.1.978H23.65c.603 0 1.1-.438 1.1-.978s-.488-.978-1.1-.978H13.224zm16.096 0h-2.715c-.46 0-.834.438-.834.978s.373.978.834.978h2.715c.46 0 .834-.438.834-.978s-.373-.978-.834-.978"/></g></svg>