<svg xmlns="http://www.w3.org/2000/svg" viewBox="0 0 744 14" width="744" height="14"><path d="M2.625 11.887l9.122-9.372 9.628 9.372M26.625 11.887l9.122-9.372 9.628 9.372M50.625 11.887l9.122-9.372 9.628 9.372M74.625 11.887l9.122-9.372 9.628 9.372M98.625 11.887l9.122-9.372 9.628 9.372M122.625 11.887l9.122-9.372 9.628 9.372M146.625 11.887l9.122-9.372 9.628 9.372M170.625 11.887l9.122-9.372 9.628 9.372M194.625 11.876l9.122-9.351 9.628 9.351M218.625 11.783l9.122-9.173 9.628 9.173M242.625 11.566l9.122-8.757 9.628 8.757M266.625 11.183l9.122-8.022 9.628 8.022M290.625 10.578l9.122-6.861 9.628 6.861M314.625 9.703l9.122-5.183 9.628 5.183M338.625 8.593l9.122-3.055 9.628 3.055M362.625 7.418l9.122-.801 9.628.801M386.625 6.355l9.122 1.237 9.628-1.237M410.625 5.47l9.122 2.934 9.628-2.934M434.625 4.752l9.122 4.311 9.628-4.311M458.625 4.173l9.122 5.421 9.628-5.421M482.625 3.705l9.122 6.319 9.628-6.319M506.625 3.325l9.122 7.047 9.628-7.047M530.625 3.018l9.122 7.636 9.628-7.636M554.625 2.77l9.122 8.112 9.628-8.112M578.625 2.573l9.122 8.49 9.628-8.49M602.625 2.418l9.122 8.787 9.628-8.787M626.625 2.3l9.122 9.013 9.628-9.013M650.625 2.214l9.122 9.178 9.628-9.178M674.625 2.156l9.122 9.289 9.628-9.289M698.625 2.123l9.122 9.352 9.628-9.352M722.625 2.113l9.122 9.372 9.628-9.372" fill="none" stroke="#69be28" stroke-width="3.552" stroke-linecap="round" stroke-linejoin="round"/></svg>